<?xml version="1.0" encoding="utf-8"?>
<!-- Generator: Adobe Illustrator 18.1.1, SVG Export Plug-In . SVG Version: 6.00 Build 0)  -->
<!DOCTYPE svg PUBLIC "-//W3C//DTD SVG 1.1//EN" "http://www.w3.org/Graphics/SVG/1.1/DTD/svg11.dtd">
<svg version="1.1" id="Ebene_1" xmlns="http://www.w3.org/2000/svg" xmlns:xlink="http://www.w3.org/1999/xlink" x="0px" y="0px"
	 viewBox="0 0 58 58" enable-background="new 0 0 58 58" xml:space="preserve">
<g>
	<g>
		<path fill="#808080" d="M29,58L8.5,49.5L0,29L8.5,8.5L29,0l20.5,8.5L58,29l-8.5,20.5L29,58z M10,48l19,7.9L48,48l7.9-19L48,10
			L29,2.1L10,10L2.1,29L10,48z"/>
	</g>
	<g>
		<g>
			<path fill="#808080" d="M35.6,31.9c-0.2,0.4-0.4,0.8-0.7,1.2c-0.3,0.4-0.6,0.7-1,0.9c-0.4,0.3-0.8,0.5-1.2,0.7
				c1,0.9,1.5,1.9,1.5,3.2c0,0.7-0.1,1.3-0.4,1.8c-0.3,0.5-0.7,1-1.1,1.3c-0.5,0.4-1,0.6-1.6,0.8c-0.6,0.2-1.2,0.3-1.8,0.3
				c-1.7,0-3-0.4-4-1.3c-1-0.9-1.5-2.2-1.5-3.8h1.8c0,0.5,0,1,0.2,1.4c0.2,0.4,0.4,0.8,0.7,1.1c0.3,0.3,0.7,0.6,1.1,0.8
				c0.4,0.2,0.9,0.3,1.4,0.3c0.4,0,0.8,0,1.2-0.1c0.4-0.1,0.7-0.3,1.1-0.5c0.3-0.2,0.6-0.5,0.7-0.8c0.2-0.3,0.3-0.7,0.3-1.2
				c0-0.7-0.2-1.3-0.7-1.9c-0.5-0.5-1.1-1-1.9-1.5c-0.7-0.5-1.6-0.9-2.4-1.3c-0.9-0.4-1.7-0.9-2.4-1.4c-0.7-0.5-1.4-1.1-1.9-1.8
				c-0.5-0.7-0.7-1.5-0.7-2.5c0-0.5,0.1-0.9,0.2-1.4c0.2-0.4,0.4-0.8,0.7-1.2c0.3-0.4,0.6-0.7,1-0.9c0.4-0.3,0.8-0.5,1.2-0.7
				c-1-0.9-1.5-1.9-1.5-3.2c0-0.7,0.1-1.3,0.4-1.8c0.3-0.5,0.7-1,1.1-1.3c0.5-0.4,1-0.6,1.6-0.8c0.6-0.2,1.2-0.3,1.8-0.3
				c1.7,0,3,0.4,4,1.3c1,0.9,1.5,2.2,1.5,3.9h-1.8c0-0.5,0-1-0.2-1.4c-0.2-0.4-0.4-0.8-0.7-1.1c-0.3-0.3-0.7-0.6-1.1-0.8
				c-0.4-0.2-0.9-0.3-1.4-0.3c-0.4,0-0.8,0-1.2,0.1c-0.4,0.1-0.7,0.3-1.1,0.5c-0.3,0.2-0.6,0.5-0.7,0.8c-0.2,0.3-0.3,0.7-0.3,1.2
				c0,0.7,0.2,1.4,0.7,1.9c0.5,0.5,1.1,1,1.9,1.5c0.7,0.5,1.6,0.9,2.4,1.3c0.9,0.4,1.7,0.9,2.4,1.4c0.7,0.5,1.4,1.1,1.9,1.8
				c0.5,0.7,0.7,1.5,0.7,2.5C35.8,31.1,35.7,31.5,35.6,31.9z M33.1,28.5c-0.6-0.6-1.2-1.2-2-1.7c-0.8-0.5-1.6-1-2.5-1.4
				c-0.9-0.4-1.6-0.8-2.2-1.3c-0.7,0.3-1.3,0.7-1.7,1.2c-0.4,0.5-0.7,1.2-0.7,2c0,0.7,0.3,1.4,0.8,2c0.5,0.6,1.2,1.1,2,1.6
				c0.8,0.5,1.6,1,2.5,1.4c0.9,0.4,1.6,0.9,2.2,1.3c0.7-0.3,1.3-0.7,1.8-1.2c0.5-0.5,0.7-1.2,0.7-2C34,29.8,33.7,29.2,33.1,28.5z"/>
			<path fill="#808080" d="M29.1,42.3c-1.7,0-3.1-0.5-4.1-1.4c-1-0.9-1.5-2.3-1.5-4v-0.2h2.3l0,0.3c0,0.5,0,0.9,0.2,1.3
				c0.1,0.4,0.4,0.8,0.6,1.1c0.3,0.3,0.6,0.5,1,0.7c0.7,0.3,1.6,0.3,2.4,0.1c0.4-0.1,0.7-0.2,1-0.4c0.3-0.2,0.5-0.4,0.7-0.7
				c0.2-0.3,0.2-0.6,0.2-1.1c0-0.7-0.2-1.2-0.7-1.7c-0.5-0.5-1.1-1-1.8-1.4c-0.7-0.5-1.5-0.9-2.4-1.3c-0.9-0.4-1.7-0.9-2.5-1.5
				c-0.8-0.5-1.4-1.2-1.9-1.9c-0.5-0.7-0.8-1.6-0.8-2.6c0-0.5,0.1-1,0.3-1.5c0.2-0.4,0.4-0.9,0.7-1.2c0.3-0.4,0.7-0.7,1.1-1
				c0.3-0.2,0.6-0.4,0.9-0.5c-0.8-0.9-1.3-1.9-1.3-3.1c0-0.7,0.2-1.4,0.5-1.9c0.3-0.5,0.7-1,1.2-1.4c0.5-0.4,1.1-0.6,1.7-0.8
				c0.6-0.2,1.2-0.3,1.9-0.3c1.7,0,3.1,0.5,4.1,1.4c1,0.9,1.5,2.3,1.5,4v0.2h-2.3l0-0.3c0-0.5,0-0.9-0.2-1.3
				c-0.1-0.4-0.4-0.8-0.6-1.1c-0.3-0.3-0.6-0.5-1-0.7c-0.7-0.3-1.6-0.3-2.4-0.1c-0.4,0.1-0.7,0.2-1,0.4c-0.3,0.2-0.5,0.4-0.7,0.7
				c-0.2,0.3-0.2,0.6-0.2,1.1c0,0.7,0.2,1.3,0.7,1.7c0.5,0.5,1.1,1,1.8,1.4c0.7,0.4,1.5,0.9,2.4,1.3c0.9,0.4,1.7,0.9,2.5,1.5
				c0.8,0.5,1.4,1.2,1.9,1.9c0.5,0.7,0.8,1.6,0.8,2.6c0,0.5-0.1,1-0.3,1.5c-0.2,0.4-0.4,0.9-0.7,1.2c-0.3,0.4-0.7,0.7-1.1,1
				c-0.3,0.2-0.6,0.4-0.9,0.5c0.8,0.9,1.3,1.9,1.3,3.1c0,0.7-0.2,1.4-0.5,1.9c-0.3,0.5-0.7,1-1.2,1.4c-0.5,0.4-1,0.6-1.7,0.8
				C30.4,42.2,29.8,42.3,29.1,42.3z M24,37.1c0,1.5,0.5,2.6,1.4,3.4c0.9,0.8,2.2,1.3,3.8,1.3c0.6,0,1.2-0.1,1.7-0.3
				c0.6-0.2,1.1-0.4,1.5-0.8c0.4-0.3,0.8-0.7,1.1-1.2c0.3-0.5,0.4-1,0.4-1.7c0-1.2-0.5-2.2-1.4-3l-0.3-0.3l0.4-0.1
				c0.4-0.2,0.8-0.4,1.2-0.6c0.4-0.2,0.7-0.5,1-0.9c0.3-0.3,0.5-0.7,0.6-1.1c0.2-0.4,0.2-0.8,0.2-1.3c0-0.9-0.2-1.7-0.7-2.3
				c-0.5-0.7-1.1-1.3-1.8-1.8c-0.7-0.5-1.5-1-2.4-1.4c-0.9-0.4-1.7-0.9-2.5-1.3c-0.8-0.5-1.4-1-1.9-1.5c-0.5-0.6-0.8-1.3-0.8-2.1
				c0-0.5,0.1-0.9,0.3-1.3c0.2-0.4,0.5-0.6,0.8-0.9c0.3-0.2,0.7-0.4,1.1-0.5c0.9-0.2,1.9-0.2,2.8,0.2c0.5,0.2,0.9,0.5,1.2,0.8
				c0.3,0.3,0.6,0.8,0.7,1.2c0.1,0.4,0.2,0.8,0.2,1.3H34c0-1.5-0.5-2.7-1.4-3.4c-0.9-0.8-2.2-1.3-3.8-1.3c-0.6,0-1.2,0.1-1.7,0.3
				c-0.6,0.2-1.1,0.4-1.5,0.8c-0.4,0.3-0.8,0.7-1.1,1.2c-0.3,0.5-0.4,1-0.4,1.7c0,1.2,0.5,2.2,1.4,3l0.3,0.3l-0.4,0.1
				c-0.4,0.2-0.8,0.4-1.2,0.6c-0.4,0.3-0.7,0.5-1,0.9c-0.3,0.3-0.5,0.7-0.6,1.1c-0.2,0.4-0.2,0.8-0.2,1.3c0,0.9,0.2,1.7,0.7,2.3
				c0.5,0.7,1.1,1.3,1.8,1.8c0.7,0.5,1.5,1,2.4,1.4c0.9,0.4,1.7,0.9,2.5,1.3c0.8,0.5,1.4,1,1.9,1.5c0.5,0.6,0.8,1.3,0.8,2
				c0,0.5-0.1,0.9-0.3,1.3c-0.2,0.4-0.5,0.6-0.8,0.9c-0.3,0.2-0.7,0.4-1.1,0.5c-0.9,0.2-1.9,0.2-2.8-0.2c-0.5-0.2-0.9-0.5-1.2-0.8
				c-0.3-0.3-0.6-0.8-0.7-1.2c-0.1-0.4-0.2-0.8-0.2-1.2H24z M31.5,34L31.4,34c-0.6-0.4-1.4-0.9-2.2-1.3c-0.9-0.4-1.7-0.9-2.5-1.4
				c-0.8-0.5-1.5-1.1-2-1.7c-0.6-0.6-0.9-1.4-0.9-2.2c0-0.9,0.2-1.6,0.7-2.1c0.5-0.5,1.1-0.9,1.8-1.2l0.1-0.1l0.1,0.1
				c0.6,0.4,1.3,0.8,2.2,1.3c0.9,0.4,1.7,0.9,2.5,1.4c0.8,0.5,1.5,1.1,2.1,1.7c0.6,0.6,0.9,1.4,0.9,2.2c0,0.9-0.3,1.6-0.8,2.1
				c-0.5,0.5-1.1,0.9-1.8,1.2L31.5,34z M26.4,24.5c-0.6,0.3-1.1,0.6-1.5,1.1c-0.4,0.5-0.6,1.1-0.6,1.8c0,0.7,0.2,1.3,0.8,1.8
				c0.5,0.6,1.2,1.1,1.9,1.6c0.8,0.5,1.6,1,2.4,1.4c0.8,0.4,1.5,0.8,2.1,1.2c0.6-0.3,1.1-0.6,1.6-1.1c0.4-0.5,0.6-1,0.6-1.8
				c0-0.7-0.3-1.3-0.8-1.9c-0.5-0.6-1.2-1.1-2-1.6c-0.8-0.5-1.6-1-2.5-1.4C27.7,25.3,27,24.9,26.4,24.5z"/>
		</g>
	</g>
</g>
</svg>
