<?xml version="1.0" encoding="utf-8"?>
<!-- Generator: Adobe Illustrator 18.1.1, SVG Export Plug-In . SVG Version: 6.00 Build 0)  -->
<!DOCTYPE svg PUBLIC "-//W3C//DTD SVG 1.1//EN" "http://www.w3.org/Graphics/SVG/1.1/DTD/svg11.dtd">
<svg version="1.1" id="Ebene_1" xmlns="http://www.w3.org/2000/svg" xmlns:xlink="http://www.w3.org/1999/xlink" x="0px" y="0px"
	 viewBox="0 0 58 58" enable-background="new 0 0 58 58" xml:space="preserve">
<g>
	<g>
		<path fill="#808080" d="M29,58L8.5,49.5L0,29L8.5,8.5L29,0l20.5,8.5L58,29l-8.5,20.5L29,58z M10,48l19,7.9L48,48l7.9-19L48,10
			L29,2.1L10,10L2.1,29L10,48z"/>
	</g>
	<g>
		<g>
			<path fill="#808080" d="M14.6,42c-1.5,0-2.7-0.7-3.2-1.8c-0.4-0.9-0.2-1.9,0.4-2.8c0.6-0.8,1.5-1.5,2.5-1.9
				c0.8-0.3,1.6-0.5,2.3-0.5c1.5,0,2.7,0.7,3.2,1.8c0.4,0.9,0.2,1.9-0.4,2.8c-0.6,0.8-1.5,1.5-2.5,1.9C16.1,41.8,15.3,42,14.6,42z
				 M16.7,36.9c-0.5,0-1.1,0.1-1.6,0.3c-0.7,0.3-1.3,0.8-1.7,1.3c-0.3,0.4-0.4,0.7-0.3,1c0.2,0.6,1.7,0.8,3,0.2
				c0.7-0.3,1.3-0.8,1.7-1.3c0.3-0.4,0.4-0.7,0.3-1C17.9,37.1,17.4,36.9,16.7,36.9z"/>
		</g>
		<g>
			<path fill="#808080" d="M26.3,37.6c-1.5,0-2.7-0.7-3.2-1.8c-0.7-1.7,0.6-3.8,3-4.8c0.8-0.3,1.6-0.5,2.3-0.5
				c1.5,0,2.7,0.7,3.2,1.8c0.7,1.7-0.6,3.8-3,4.8C27.9,37.4,27.1,37.6,26.3,37.6z M28.4,32.5c-0.5,0-1.1,0.1-1.6,0.3
				c-1.4,0.6-2.2,1.7-1.9,2.3c0.2,0.6,1.7,0.8,3,0.2c1.4-0.6,2.2-1.7,1.9-2.3C29.7,32.7,29.1,32.5,28.4,32.5z"/>
		</g>
		<g>
			<polygon fill="#808080" points="20,37.4 18.1,37.4 18.1,19.1 31.8,13.6 31.8,32.9 29.8,32.9 29.8,16.5 20,20.4 			"/>
		</g>
		<g>
			
				<rect x="24" y="15.4" transform="matrix(0.3751 0.927 -0.927 0.3751 35.7271 -9.5153)" fill="#808080" width="1.9" height="12.7"/>
		</g>
	</g>
	<g>
		<g>
			<path fill="#808080" d="M36.1,34.4L34.7,33c2.2-2.2,2.2-5.8,0-8l1.4-1.4c1.4,1.4,2.2,3.4,2.2,5.4S37.5,32.9,36.1,34.4z"/>
		</g>
		<g>
			<path fill="#808080" d="M40.3,36.1L39,34.7c3.1-3.1,3.1-8.2,0-11.4l1.4-1.4C44.2,25.8,44.2,32.2,40.3,36.1z"/>
		</g>
		<g>
			<path fill="#808080" d="M44.8,38l-1.4-1.4c4.2-4.2,4.2-11.1,0-15.4l1.4-1.4C49.8,24.9,49.8,33.1,44.8,38z"/>
		</g>
	</g>
</g>
</svg>
