<?xml version="1.0" encoding="utf-8"?>
<!-- Generator: Adobe Illustrator 18.1.1, SVG Export Plug-In . SVG Version: 6.00 Build 0)  -->
<!DOCTYPE svg PUBLIC "-//W3C//DTD SVG 1.1//EN" "http://www.w3.org/Graphics/SVG/1.1/DTD/svg11.dtd">
<svg version="1.1" id="Ebene_1" xmlns="http://www.w3.org/2000/svg" xmlns:xlink="http://www.w3.org/1999/xlink" x="0px" y="0px"
	 viewBox="0 0 58 58" enable-background="new 0 0 58 58" xml:space="preserve">
<g>
	<g>
		<path fill="#808080" d="M29,58L8.5,49.5L0,29L8.5,8.5L29,0l20.5,8.5L58,29l-8.5,20.5L29,58z M10,48l19,7.9L48,48l7.9-19L48,10
			L29,2.1L10,10L2.1,29L10,48z"/>
	</g>
	<g>
		<g>
			<g>
				<g>
					<path fill="#808080" d="M39.3,43.4H18.7v-28h12.8l7.8,7.3V43.4z M20.6,41.5h16.7V23.6l-6.6-6.2H20.6V41.5z"/>
				</g>
				<g>
					<path fill="#808080" d="M38.3,24.1h-7.2l-1-1v-6.8l1.6-0.7l7.2,6.8L38.3,24.1z M32.1,22.2h3.8l-3.8-3.6V22.2z"/>
				</g>
			</g>
		</g>
		<g>
			<rect x="23.2" y="26.4" fill="#808080" width="11.6" height="1.9"/>
		</g>
		<g>
			<rect x="23.2" y="30.7" fill="#808080" width="11.6" height="1.9"/>
		</g>
		<g>
			<rect x="23.2" y="35" fill="#808080" width="11.6" height="1.9"/>
		</g>
	</g>
</g>
</svg>
