<?xml version="1.0" encoding="utf-8"?>
<!-- Generator: Adobe Illustrator 18.1.1, SVG Export Plug-In . SVG Version: 6.00 Build 0)  -->
<!DOCTYPE svg PUBLIC "-//W3C//DTD SVG 1.1//EN" "http://www.w3.org/Graphics/SVG/1.1/DTD/svg11.dtd">
<svg version="1.1" id="Ebene_1" xmlns="http://www.w3.org/2000/svg" xmlns:xlink="http://www.w3.org/1999/xlink" x="0px" y="0px"
	 viewBox="0 0 58 58" enable-background="new 0 0 58 58" xml:space="preserve">
<g>
	<g>
		<path fill="#808080" d="M29,58L8.5,49.5L0,29L8.5,8.5L29,0l20.5,8.5L58,29l-8.5,20.5L29,58z M10,48l19,7.9L48,48l7.9-19L48,10
			L29,2.1L10,10L2.1,29L10,48z"/>
	</g>
	<g>
		<g>
			<path fill="#808080" d="M36.1,34.4L34.7,33c1.1-1.1,1.7-2.5,1.7-4s-0.6-2.9-1.7-4l1.4-1.4c1.4,1.4,2.2,3.4,2.2,5.4
				S37.5,32.9,36.1,34.4z"/>
		</g>
		<g>
			<path fill="#808080" d="M40.3,36.1L39,34.7c3.1-3.1,3.1-8.2,0-11.4l1.4-1.4C44.2,25.8,44.2,32.2,40.3,36.1z"/>
		</g>
		<g>
			<path fill="#808080" d="M44.8,38l-1.4-1.4c2.1-2.1,3.2-4.8,3.2-7.7s-1.1-5.6-3.2-7.7l1.4-1.4c2.4,2.4,3.7,5.6,3.7,9
				S47.3,35.6,44.8,38z"/>
		</g>
	</g>
	<g>
		<g>
			<g>
				<g>
					<path fill="#808080" d="M31.6,43H11V15h12.8l7.8,7.3V43z M13,41.1h16.7V23.2l-6.6-6.2H13V41.1z"/>
				</g>
				<g>
					<path fill="#808080" d="M30.7,23.7h-7.2l-1-1V16l1.6-0.7l7.2,6.8L30.7,23.7z M24.4,21.8h3.8l-3.8-3.6V21.8z"/>
				</g>
			</g>
		</g>
		<g>
			<rect x="15.4" y="25.9" fill="#808080" width="11.8" height="1.9"/>
		</g>
		<g>
			<rect x="15.4" y="30.2" fill="#808080" width="11.8" height="1.9"/>
		</g>
		<g>
			<rect x="15.4" y="34.5" fill="#808080" width="11.8" height="1.9"/>
		</g>
	</g>
</g>
</svg>
