<?xml version="1.0" encoding="utf-8"?>
<!-- Generator: Adobe Illustrator 18.1.1, SVG Export Plug-In . SVG Version: 6.00 Build 0)  -->
<!DOCTYPE svg PUBLIC "-//W3C//DTD SVG 1.1//EN" "http://www.w3.org/Graphics/SVG/1.1/DTD/svg11.dtd">
<svg version="1.1" id="Ebene_1" xmlns="http://www.w3.org/2000/svg" xmlns:xlink="http://www.w3.org/1999/xlink" x="0px" y="0px"
	 viewBox="0 0 58 58" enable-background="new 0 0 58 58" xml:space="preserve">
<g>
	<g>
		<g>
			<path fill="#808080" d="M29,58L8.5,49.5L0,29L8.5,8.5L29,0l20.5,8.5L58,29l-8.5,20.5L29,58z M10,48l19,7.9L48,48l7.9-19L48,10
				L29,2.1L10,10L2.1,29L10,48z"/>
		</g>
		<g>
			<g>
				<circle fill="#808080" cx="29" cy="41.2" r="1.7"/>
			</g>
			<g>
				<path fill="#808080" d="M22,21.6c0.3-1,0.9-1.9,1.5-2.6c0.7-0.7,1.5-1.3,2.5-1.7c1-0.4,2.1-0.6,3.3-0.6c1,0,1.9,0.1,2.7,0.4
					c0.8,0.3,1.6,0.7,2.2,1.3c0.6,0.6,1.2,1.2,1.5,2c0.4,0.8,0.6,1.7,0.6,2.7c0,1.3-0.3,2.4-0.9,3.3s-1.3,1.8-2.2,2.6
					c-0.7,0.7-1.3,1.3-1.7,1.7c-0.4,0.4-0.7,0.8-1,1.2c-0.2,0.4-0.3,0.9-0.4,1.4c-0.1,0.6-0.1,1.4-0.1,2.5H28c0-1.1,0-2,0.2-2.7
					c0.1-0.7,0.4-1.4,0.7-1.9c0.3-0.6,0.7-1.1,1.3-1.7c0.5-0.5,1.2-1.1,1.9-1.8c0.6-0.6,1.2-1.3,1.6-2c0.4-0.7,0.6-1.6,0.6-2.5
					c0-0.7-0.1-1.3-0.4-1.9c-0.3-0.6-0.6-1.1-1.1-1.5c-0.5-0.4-1-0.7-1.6-1c-0.6-0.2-1.2-0.3-1.9-0.3c-0.9,0-1.7,0.2-2.5,0.5
					c-0.7,0.3-1.3,0.8-1.8,1.3c-0.5,0.6-0.8,1.2-1,2c-0.2,0.8-0.3,1.6-0.3,2.5h-2.2C21.5,23.7,21.7,22.6,22,21.6z"/>
				<path fill="#808080" d="M30.3,36h-2.4l0-0.1c0-1.1,0-2,0.2-2.7c0.1-0.7,0.4-1.4,0.7-2c0.3-0.6,0.7-1.2,1.3-1.7
					c0.5-0.5,1.2-1.1,1.9-1.8c0.6-0.6,1.2-1.3,1.6-2c0.4-0.7,0.6-1.5,0.6-2.4c0-0.7-0.1-1.3-0.4-1.9c-0.3-0.6-0.6-1.1-1.1-1.4
					c-0.4-0.4-1-0.7-1.6-0.9c-0.6-0.2-1.2-0.3-1.9-0.3c-0.9,0-1.7,0.2-2.4,0.5c-0.7,0.3-1.3,0.8-1.7,1.3c-0.5,0.6-0.8,1.2-1,2
					c-0.2,0.8-0.3,1.6-0.3,2.5l0,0.1h-2.4V25c0-1.2,0.2-2.4,0.5-3.4c0.4-1,0.9-1.9,1.6-2.6c0.7-0.7,1.5-1.3,2.5-1.7
					c1-0.4,2.1-0.6,3.4-0.6c1,0,1.9,0.1,2.8,0.4c0.9,0.3,1.6,0.7,2.3,1.3c0.7,0.6,1.2,1.3,1.6,2c0.4,0.8,0.6,1.7,0.6,2.8
					c0,1.3-0.3,2.4-0.9,3.4c-0.6,0.9-1.3,1.8-2.2,2.6c-0.7,0.7-1.3,1.3-1.7,1.7c-0.4,0.4-0.7,0.8-0.9,1.2c-0.2,0.4-0.3,0.9-0.4,1.4
					C30.4,34.1,30.3,34.9,30.3,36L30.3,36z M28.1,35.8h2c0-1,0.1-1.8,0.1-2.4c0.1-0.6,0.2-1.1,0.4-1.5c0.2-0.4,0.5-0.8,1-1.2
					c0.4-0.4,1-1,1.7-1.7c0.9-0.8,1.6-1.7,2.2-2.6c0.6-0.9,0.8-2,0.8-3.2c0-1-0.2-1.9-0.5-2.7c-0.4-0.8-0.9-1.4-1.5-2
					c-0.6-0.5-1.4-1-2.2-1.3c-0.8-0.3-1.7-0.4-2.7-0.4c-1.2,0-2.3,0.2-3.3,0.6c-1,0.4-1.8,0.9-2.5,1.6c-0.7,0.7-1.2,1.5-1.5,2.5
					c-0.3,1-0.5,2.1-0.5,3.2h2c0-0.9,0.1-1.7,0.3-2.4c0.2-0.8,0.6-1.5,1.1-2c0.5-0.6,1.1-1,1.8-1.4c0.7-0.3,1.6-0.5,2.5-0.5
					c0.7,0,1.3,0.1,1.9,0.4c0.6,0.2,1.2,0.6,1.6,1c0.5,0.4,0.8,0.9,1.1,1.5c0.3,0.6,0.4,1.2,0.4,2c0,0.9-0.2,1.8-0.7,2.5
					c-0.4,0.7-1,1.4-1.6,2c-0.7,0.7-1.4,1.3-1.9,1.8c-0.5,0.5-0.9,1.1-1.2,1.6c-0.3,0.6-0.5,1.2-0.7,1.9
					C28.2,34,28.1,34.8,28.1,35.8z"/>
			</g>
		</g>
	</g>
</g>
</svg>
