<?xml version="1.0" encoding="utf-8"?>
<!-- Generator: Adobe Illustrator 18.1.1, SVG Export Plug-In . SVG Version: 6.00 Build 0)  -->
<!DOCTYPE svg PUBLIC "-//W3C//DTD SVG 1.1//EN" "http://www.w3.org/Graphics/SVG/1.1/DTD/svg11.dtd">
<svg version="1.1" id="Ebene_1" xmlns="http://www.w3.org/2000/svg" xmlns:xlink="http://www.w3.org/1999/xlink" x="0px" y="0px"
	 viewBox="0 0 58 58" enable-background="new 0 0 58 58" xml:space="preserve">
<g>
	<g>
		<path fill="#808080" d="M29,58L8.5,49.5L0,29L8.5,8.5L29,0l20.5,8.5L58,29l-8.5,20.5L29,58z M10,48l19,7.9L48,48l7.9-19L48,10
			L29,2.1L10,10L2.1,29L10,48z"/>
	</g>
	<g>
		<g>
			<path fill="#808080" d="M33.9,43c-2.3,0-4.2-1.9-4.2-4.2c0-2.3,1.9-4.2,4.2-4.2c2.3,0,4.2,1.9,4.2,4.2C38,41.1,36.2,43,33.9,43z
				 M33.9,36.5c-1.2,0-2.2,1-2.2,2.3c0,1.3,1,2.3,2.2,2.3s2.2-1,2.2-2.3C36.1,37.5,35.1,36.5,33.9,36.5z"/>
		</g>
		<g>
			<path fill="#808080" d="M21.6,33.2c-2.3,0-4.2-1.9-4.2-4.2s1.9-4.2,4.2-4.2s4.2,1.9,4.2,4.2S23.9,33.2,21.6,33.2z M21.6,26.7
				c-1.2,0-2.2,1-2.2,2.3s1,2.3,2.2,2.3c1.2,0,2.2-1,2.2-2.3S22.9,26.7,21.6,26.7z"/>
		</g>
		<g>
			<path fill="#808080" d="M33.9,23.5c-2.3,0-4.2-1.9-4.2-4.2s1.9-4.2,4.2-4.2c2.3,0,4.2,1.9,4.2,4.2S36.2,23.5,33.9,23.5z
				 M33.9,16.9c-1.2,0-2.2,1-2.2,2.3c0,1.3,1,2.3,2.2,2.3s2.2-1,2.2-2.3C36.1,18,35.1,16.9,33.9,16.9z"/>
		</g>
		<g>
			
				<rect x="23.1" y="32.5" transform="matrix(0.7019 0.7122 -0.7122 0.7019 32.1167 -9.901)" fill="#808080" width="9.6" height="1.9"/>
		</g>
		<g>
			
				<rect x="26.9" y="19.2" transform="matrix(0.7122 0.702 -0.702 0.7122 24.8477 -12.6795)" fill="#808080" width="1.9" height="9.6"/>
		</g>
	</g>
</g>
</svg>
