<?xml version="1.0" encoding="utf-8"?>
<!-- Generator: Adobe Illustrator 18.1.1, SVG Export Plug-In . SVG Version: 6.00 Build 0)  -->
<!DOCTYPE svg PUBLIC "-//W3C//DTD SVG 1.1//EN" "http://www.w3.org/Graphics/SVG/1.1/DTD/svg11.dtd">
<svg version="1.1" xmlns="http://www.w3.org/2000/svg" xmlns:xlink="http://www.w3.org/1999/xlink" x="0px" y="0px"
	 viewBox="0 0 1101.5 658.9" enable-background="new 0 0 1101.5 658.9" xml:space="preserve">
<g id="Klaviatur" display="none">
</g>
<g id="Notenschlüssel" display="none">
</g>
<g id="reine_Anschauung" display="none">
</g>
<g id="Erkenntnis" display="none">
	<line display="inline" fill="none" stroke="#E6E6E6" stroke-miterlimit="10" x1="79.7" y1="553.8" x2="129.7" y2="553.8"/>
	<line display="inline" fill="none" stroke="#E6E6E6" stroke-miterlimit="10" x1="253.7" y1="553.8" x2="303.7" y2="553.8"/>
	<rect x="163.2" y="649.1" display="inline" fill="none" width="70" height="16.1"/>
	<text transform="matrix(1 0 0 1 163.1874 665.1447)" display="inline" font-family="'Lato-Light'" font-size="22">intuitiv</text>
	<rect x="331.5" y="649.1" display="inline" fill="none" width="81.1" height="16.1"/>
	<text transform="matrix(1 0 0 1 331.529 665.1447)" display="inline" font-family="'Lato-Light'" font-size="22">abstrakt</text>
	<g display="inline">
		<line fill="none" stroke="#344D67" stroke-miterlimit="10" stroke-dasharray="2,4" x1="232.2" y1="493.3" x2="216.2" y2="509.3"/>
		<g>
			<g>
				<path fill="#344D67" stroke="#344D67" stroke-miterlimit="10" d="M282.3,491.4L272,474l6.8,2.4L271,461l2.6,1.3l-6.9-14.8
					l-6.9,14.8l4.7-1.8l-10,16l4.9-1.9l-8.4,16.8l14.1-4.9v11.3h3v-11.3L282.3,491.4z M282.5,491.4"/>
			</g>
			<polygon fill="#344D67" stroke="#344D67" stroke-miterlimit="10" points="242,447.5 234.6,458.6 240.1,459 228.7,471.8 
				237.2,470.5 224,487.9 238.2,488.1 238.2,497.8 245.2,497.8 245.2,487.8 259.2,487.8 246.6,472.4 254.1,471.6 244,457.8 
				249.5,458.4 			"/>
		</g>
		<g>
			<path fill="#344D67" stroke="#344D67" stroke-miterlimit="10" d="M216.2,604.8c-12,0-24,0-36,0c0-7,0-15,0-22c0,0-0.2,0-0.4,0
				c-3.4,0-6.8,0-10.2,0c-1.2,0-2.4-0.2-3.5-0.7c-3.1-1.5-4.7-4-4.7-7.5c0-3.7,0-7.4,0-11c0-0.5-0.1-0.7-0.5-0.9
				c-1.2-0.6-2.4-1.2-3.6-1.8c-2.4-1.2-3-3.3-1.8-5.7c1.9-3.6,3.7-7.2,5.6-10.8c0.2-0.3,0.3-0.8,0.3-1.2c0.1-2.6,0-5.3,0.2-7.9
				c0.7-6.7,3.1-12.6,7.4-17.8c5.3-6.4,12-10.6,20.2-11.9c12.7-2,23.5,1.9,31.8,11.8c5.8,6.8,8.2,14.8,7.6,23.7
				c-0.6,9.3-4.6,17-11.6,23.1c-0.4,0.3-0.7,0.6-0.7,1.1c0,13-0.2,26-0.2,38.9C216.2,604.4,216.2,604.8,216.2,604.8z"/>
			<path fill="#FFFFFF" d="M175.4,541.7c0,1.8-1.5,3.3-3.3,3.3c-1.8,0-3.3-1.4-3.3-3.2c0-1.8,1.4-3.3,3.3-3.3
				C173.9,538.4,175.4,539.9,175.4,541.7z"/>
		</g>
	</g>
	<g display="inline">
		<polygon fill="#344D67" points="421.7,498.3 414.7,498.3 414.7,485.3 402.6,485.3 418.2,447.6 433.8,485.3 421.7,485.3 		"/>
		<line fill="none" stroke="#344D67" stroke-miterlimit="10" stroke-dasharray="2,4" x1="406.1" y1="493.8" x2="390" y2="509.8"/>
		<g>
			<path fill="#344D67" stroke="#344D67" stroke-miterlimit="10" d="M390.2,605.8c-12,0-24,0-36,0c0-8,0-15,0-23c0,0-0.4,0-0.6,0
				c-3.4,0-6.8,0.2-10.2,0.2c-1.2,0-2.4,0-3.5-0.6c-3.1-1.5-4.7-4-4.7-7.4c0-3.7,0-7.3,0-11c0-0.5-0.1-0.7-0.5-0.9
				c-1.2-0.6-2.4-1.2-3.6-1.8c-2.4-1.2-3-3.3-1.8-5.7c1.9-3.6,3.7-7.2,5.6-10.8c0.2-0.3,0.3-0.8,0.3-1.2c0.1-2.6,0-5.3,0.2-7.9
				c0.7-6.7,3.1-12.6,7.4-17.8c5.3-6.4,12-10.6,20.2-11.9c12.7-2,23.5,1.9,31.8,11.8c5.8,6.8,8.2,14.8,7.6,23.7
				c-0.6,9.3-4.6,17-11.6,23.1c-0.4,0.3-0.6,0.6-0.6,1.1c0,13-0.1,26-0.1,38.9C390.2,604.9,390.2,604.8,390.2,605.8z"/>
			<path fill="#FFFFFF" d="M349.2,542.2c0,1.8-1.5,3.3-3.3,3.3c-1.8,0-3.3-1.4-3.3-3.2c0-1.8,1.4-3.3,3.3-3.3
				C347.7,538.9,349.2,540.4,349.2,542.2z"/>
		</g>
		<rect x="433.8" y="448" fill="none" width="61.7" height="18.7"/>
		
			<text transform="matrix(1 0 0 1 433.7989 462.7301)" fill="#344D67" font-family="'BebasNeueBold'" font-size="21" letter-spacing="1">»Baum«</text>
	</g>
	<g display="inline">
		<g>
			<path fill="#344D67" stroke="#344D67" stroke-miterlimit="10" d="M55,590.9l-21-34.7l13.5,4.9l-15.7-30.9l5.2,2.6l-13.7-29.5
				L9.5,532.8l9.4-3.6l-20,31.9l9.7-3.7l-17.3,33.5l27.7-9.8v22.6h8v-22.6L55,590.9z M54.8,590.9"/>
		</g>
		<polygon fill="#344D67" stroke="#344D67" stroke-miterlimit="10" points="-26.2,503.3 -41,525.4 -30,526.1 -52.8,551.8 
			-35.7,549.2 -61.6,584 -32.8,584.3 -32.8,603.8 -19.8,603.8 -19.8,584.8 8.3,584.8 -17,553.5 -2.1,551.7 -22.1,524 -11.1,525.1 		
			"/>
	</g>
	<g display="inline">
		<rect x="-104" y="324.3" fill="none" width="709.4" height="49"/>
		<text transform="matrix(1 0 0 1 -104.0012 360.0616)" fill="#F8A478" font-family="'PlayfairDisplay-Italic'" font-size="45">intuitives &amp; abstraktes Erkennen</text>
	</g>
</g>
<g id="Dur_x2F_Moll">
</g>
<g id="Obertöne">
</g>
<g id="Stimmlagen">
</g>
<g id="Orchester">
	<polygon fill="#FFFFFF" stroke="#F8A478" stroke-miterlimit="10" points="300.7,600.9 500.7,600.9 530,530.1 388.6,388.7 	"/>
	<polygon fill="#FFFFFF" stroke="#F8A478" stroke-miterlimit="10" points="600.7,500.8 600.7,300.8 388.6,388.6 530,530 	"/>
	<polygon fill="#FFFFFF" stroke="#F8A478" stroke-miterlimit="10" points="671.4,530 600.7,500.8 600.7,300.8 812.8,388.6 	"/>
	<polygon fill="#FFFFFF" stroke="#F8A478" stroke-miterlimit="10" points="700.7,600.9 900.7,600.9 812.9,388.7 671.5,530.2 	"/>
	<polygon fill="#FFFFFF" stroke="#344D67" stroke-miterlimit="10" points="500.7,600.9 530,530.1 600.7,500.8 671.5,530.1 
		700.7,600.9 	"/>
	<line fill="none" stroke="#E6E6E6" stroke-miterlimit="10" x1="459.3" y1="259.3" x2="494.7" y2="344.7"/>
	<polygon fill="#FFFFFF" stroke="#F8A478" stroke-miterlimit="10" points="300.7,600.9 200.7,600.9 317.9,318 388.6,388.7 	"/>
	<polygon fill="#FFFFFF" stroke="#F8A478" stroke-miterlimit="10" points="388.6,388.6 494.7,344.7 459.3,259.3 317.9,317.9 	"/>
	<polygon fill="#FFFFFF" stroke="#F8A478" stroke-miterlimit="10" points="494.7,344.7 600.7,300.8 600.7,200.8 459.3,259.3 	"/>
	<polygon fill="#FFFFFF" stroke="#F8A478" stroke-miterlimit="10" points="600.7,300.8 812.9,388.6 883.6,317.9 600.7,200.8 	"/>
	<polygon fill="#FFFFFF" stroke="#F8A478" stroke-miterlimit="10" points="883.6,318 1000.7,600.9 900.7,600.9 812.9,388.7 	"/>
	<polygon fill="#FFFFFF" stroke="#F8A478" stroke-miterlimit="10" points="883.6,317.9 954.3,247.2 1100.7,600.7 1000.7,600.8 	"/>
	<polygon fill="#FFFFFF" stroke="#F8A478" stroke-miterlimit="10" points="954.3,247.2 600.7,100.7 600.7,200.8 883.6,317.9 	"/>
	<polygon fill="#FFFFFF" stroke="#F8A478" stroke-miterlimit="10" points="600.7,200.8 600.7,100.7 247.2,247.2 317.9,317.9 	"/>
	<polygon fill="#FFFFFF" stroke="#F8A478" stroke-miterlimit="10" points="247.2,247.2 317.9,317.9 200.7,600.8 100.7,600.7 	"/>
	<polygon fill="#FFFFFF" stroke="#F8A478" stroke-miterlimit="10" points="247.2,247.2 600.7,100.7 600.7,0.7 176.4,176.5 	"/>
	<polygon fill="#FFFFFF" stroke="#F8A478" stroke-miterlimit="10" points="600.7,0.7 600.7,100.7 954.3,247.2 1025,176.5 	"/>
	<polygon fill="#FFFFFF" stroke="#F8A478" stroke-miterlimit="10" points="176.5,176.6 247.2,247.3 100.7,600.9 0.7,600.9 	"/>
	<g>
		<path d="M538.2,573.2h-1.1h-0.2v-18.4c0.2,0,0.5,0,0.7,0h0.7h4.1c2.9,0,5,0.7,6.5,2.2c1.5,1.5,2.2,3.7,2.2,6.6s-0.8,5.2-2.3,6.9
			c-1.6,1.7-3.7,2.6-6.4,2.6H538.2z M545,556.7c-0.9-0.3-1.8-0.4-2.8-0.4c-1,0-2.1,0.1-3.3,0.3v15.1c2.7,0.4,4.8,0.3,6.2-0.3
			c0.8-0.3,1.5-0.8,2.1-1.5c1.2-1.4,1.8-3.4,1.8-6.1C548.9,559.9,547.6,557.5,545,556.7z"/>
		<path d="M557.3,554.8h2.1v18.4h-2.1V554.8z"/>
		<path d="M572.8,565.2c-0.6,0-1.2,0-1.9,0c-0.6,0-1.2,0-1.9,0v8h-2v-18.4h0.6h0.7c0.6,0,1.2,0,2,0c0.8,0,1.5,0,2.3,0
			c4.2,0,6.3,1.7,6.3,5c0,2-0.7,3.5-2.2,4.4c-0.5,0.3-1,0.5-1.5,0.7c0.8,0.5,1.6,1.5,2.4,3.1c0.3,0.6,0.7,1.4,1,2.2
			c0.4,0.8,0.7,1.4,0.8,1.7c0.2,0.3,0.3,0.6,0.4,0.8s0.2,0.4,0.3,0.6h-2.3c-0.3-0.4-0.6-1-0.9-1.8c-0.4-0.9-0.6-1.5-0.9-2
			c-0.6-1.2-1-2.1-1.4-2.7C574,565.9,573.4,565.4,572.8,565.2z M575.7,557.1c-0.4-0.3-0.8-0.5-1.4-0.6c-0.6-0.1-1.4-0.2-2.5-0.2
			c-1.1,0-2,0.1-2.7,0.2v7.3c0.4,0,1.1,0.1,1.9,0.1h1.5c2,0,3.4-0.7,4-2.2c0.2-0.5,0.3-1.1,0.3-1.7c0-0.7-0.1-1.2-0.3-1.7
			C576.3,557.8,576.1,557.4,575.7,557.1z"/>
		<path d="M586.1,554.8h2.1v18.4h-2.1V554.8z"/>
		<path d="M608.1,557.4c-1.4-0.6-3-0.9-4.9-0.9c-1.9,0-3.5,0.7-4.6,2c-1.2,1.3-1.8,3.1-1.8,5.5c0,2.3,0.5,4.2,1.6,5.6
			s2.6,2.1,4.4,2.1c1.9,0,3.3-0.3,4.4-0.8v-5.3h-3.8V564h5.8v8c-0.3,0-0.6,0.1-0.9,0.2c-1.7,0.7-3.4,1.1-5,1.1
			c-1.6,0-2.9-0.2-3.9-0.7c-1-0.5-1.9-1.1-2.6-1.9c-1.5-1.7-2.2-3.9-2.2-6.7s0.8-5,2.4-6.7c1.6-1.6,3.6-2.4,6.1-2.4
			c1.4,0,2.7,0.2,4,0.5c0.3,0.1,0.7,0.2,1,0.2L608.1,557.4z"/>
		<path d="M615.6,554.8h10.3v1.6h-8.3v6.5h6.1v1.6h-6.1v7.1h9.2v1.6h-11.2V554.8z"/>
		<path d="M632.6,554.8h1.9l8.5,12.8l1.7,3l-0.1-3.8v-12h1.9v18.4h-1.9l-8.3-12.5l-1.9-3.2l0.1,4v11.7h-1.9V554.8z"/>
		<path d="M658,556.4H652v-1.6h14v1.6h-6v16.8H658V556.4z"/>
	</g>
	<g>
		<path d="M535.9,643.9h-3v6.4h-2V632h1h4.6c4.2,0,6.4,1.9,6.4,5.8c0,1.9-0.6,3.5-1.8,4.5C539.8,643.4,538.1,643.9,535.9,643.9z
			 M538.1,633.6c-0.6-0.2-1.4-0.2-2.3-0.2c-1,0-1.9,0.1-2.8,0.2v8.7c0.7,0.1,1.6,0.1,2.5,0.1c1.7,0,3.1-0.4,4-1.1
			c0.9-0.7,1.4-1.9,1.4-3.6C540.8,635.4,539.9,634.1,538.1,633.6z"/>
		<path d="M548.4,632h2l0,10c0,3.6,1,5.8,2.9,6.4c0.6,0.2,1.3,0.3,2.1,0.3c1.6,0,2.7-0.5,3.5-1.5c0.8-1,1.2-2.8,1.2-5.3v-10h2v10.5
			c0,5.3-2.3,7.9-6.8,7.9c-3.5,0-5.7-1.5-6.5-4.5c-0.3-1-0.4-2.1-0.4-3.4V632z"/>
		<path d="M577.7,649.9c-0.9,0.3-1.9,0.4-2.9,0.4c-1,0-2.6,0-4.7,0h-1.1V632h1.1h4.1c2,0,3.5,0.4,4.5,1.1s1.5,1.8,1.5,3.3
			s-0.5,2.6-1.6,3.5c-0.4,0.3-0.8,0.5-1.4,0.6c1.1,0,2.1,0.4,3,1.2c0.8,0.8,1.3,1.8,1.3,3c0,1.8-0.5,3.2-1.6,4.1
			C579.4,649.3,578.6,649.7,577.7,649.9z M573.9,633.3c-1.2,0-2.1,0.1-2.8,0.2v6.5c0.3,0,1,0,2.1,0h2.1c0.9,0,1.7-0.3,2.2-1
			c0.5-0.7,0.8-1.5,0.8-2.6C578.3,634.4,576.8,633.3,573.9,633.3z M575.1,641.6h-2.4c-0.8,0-1.3,0-1.6,0v7.1
			c0.8,0.2,1.8,0.2,2.9,0.2c1.1,0,2-0.1,2.6-0.2c1.9-0.4,2.8-1.7,2.8-3.7C579.5,642.7,578,641.6,575.1,641.6z"/>
		<path d="M587.8,632h2.1v16.8h7.6v1.6h-9.7V632z"/>
		<path d="M603.3,632h2.1v18.4h-2.1V632z"/>
		<path d="M613,632h2v9.9l8.1-9.9h2.4l-6.5,7.8c0.3,0.4,0.7,1.1,1.4,2.1c1.4,2.1,2.4,3.6,3,4.5c0.6,0.9,1.2,1.8,1.7,2.7l0.8,1.3
			h-2.4c0-0.1-0.1-0.2-0.1-0.2c0-0.1-0.1-0.2-0.1-0.3c-0.1-0.1-0.1-0.2-0.2-0.4c-0.1-0.1-0.2-0.4-0.4-0.8c-0.2-0.4-0.5-0.9-1-1.6
			c-0.4-0.7-0.9-1.4-1.3-2c-0.5-0.7-0.9-1.4-1.4-2c-0.4-0.7-0.8-1.3-1.2-1.8l-2.8,3.2v5.9h-2V632z"/>
		<path d="M631.5,632h2l0,10c0,3.6,1,5.8,2.9,6.4c0.6,0.2,1.3,0.3,2.1,0.3c1.6,0,2.7-0.5,3.5-1.5c0.8-1,1.2-2.8,1.2-5.3v-10h2v10.5
			c0,5.3-2.3,7.9-6.8,7.9c-3.5,0-5.7-1.5-6.5-4.5c-0.3-1-0.4-2.1-0.4-3.4V632z"/>
		<path d="M653.4,632h2.9l4.1,11.9l0.9,3.5l0.9-3.5L666,632h2.7l2.4,18.4h-2.1l-1.3-11.4l-0.5-5.4l-1.5,5.4l-3.9,11.5h-1.1
			l-4.1-11.5l-1.6-5.4l-0.5,5.4l-1.1,11.4h-2L653.4,632z"/>
	</g>
	<g>
		<path d="M797.7,483c0.5-1,1.1-1.9,2-2.6c0.9-0.8,2-1.5,3.3-2c1.3-0.5,2.6-0.8,3.8-0.9c1.2,0,2.4,0.2,3.4,0.6
			c2.1,0.8,3.6,2.3,4.5,4.6c0.6,1.5,1,2.8,1.1,4c0,0.3,0.1,0.5,0.1,0.7l-1.9,0.5c0-0.1,0-0.3,0-0.6c0-0.2,0-0.7-0.1-1.3
			c-0.1-0.6-0.3-1.4-0.7-2.4c-0.8-1.9-2-3.1-3.7-3.7c-1.7-0.6-3.6-0.5-5.7,0.4c-2.1,0.9-3.6,2.1-4.5,3.7c-0.9,1.6-1,3.3-0.2,5.1
			c0.6,1.4,1.3,2.6,2.2,3.5c0.2,0.2,0.4,0.4,0.6,0.5l-1.6,0.7c-0.2-0.2-0.4-0.5-0.6-0.7c-0.2-0.2-0.5-0.6-0.9-1.1
			c-0.4-0.5-0.8-1.3-1.3-2.4c-0.5-1.1-0.7-2.2-0.7-3.3C797,485.1,797.2,484,797.7,483z"/>
		<path d="M819,493.1l4,9.6l-1.5,0.6l-3.2-7.7l-6,2.5l2.3,5.6l-1.5,0.6l-2.3-5.6l-6.6,2.7l3.5,8.5l-1.5,0.6l-4.3-10.4L819,493.1z"/>
		<path d="M825.5,508.8l0.8,1.9l-15.5,6.4l2.9,7l-1.5,0.6l-3.7-8.9L825.5,508.8z"/>
		<path d="M831.4,522.9l0.8,1.9l-15.5,6.4l2.9,7l-1.5,0.6l-3.7-8.9L831.4,522.9z"/>
		<path d="M837.3,537.2l0.8,1.9l-17,7l-0.8-1.9L837.3,537.2z"/>
	</g>
	<g>
		<path d="M620.5,365.3c-1-0.1-1.9-0.4-2.8-0.8c-0.9-0.4-2.4-1-4.3-1.8l-1-0.4l7-17l1,0.4l3.8,1.6c1.9,0.8,3.1,1.7,3.7,2.7
			c0.6,1.1,0.7,2.3,0.1,3.6c-0.6,1.3-1.5,2.2-2.8,2.6c-0.5,0.1-1,0.2-1.5,0.1c1,0.4,1.8,1.2,2.3,2.3c0.5,1.1,0.5,2.2,0,3.3
			c-0.7,1.7-1.7,2.7-3,3.2C622.3,365.4,621.5,365.4,620.5,365.3z M621.3,356.6l-2.2-0.9c-0.7-0.3-1.2-0.5-1.5-0.6l-2.7,6.6
			c0.7,0.5,1.6,0.9,2.6,1.3c1,0.4,1.9,0.7,2.5,0.8c1.9,0.3,3.3-0.5,4-2.4C624.9,359.3,624,357.7,621.3,356.6z M623.3,348.5
			c-1.1-0.5-2-0.8-2.7-0.9l-2.5,6c0.3,0.1,0.9,0.4,1.9,0.8l2,0.8c0.9,0.4,1.7,0.3,2.4-0.1c0.7-0.4,1.3-1.1,1.7-2.1
			C627,351.2,626,349.6,623.3,348.5z"/>
		<path d="M638.1,364.4c-0.6-0.2-1.2-0.5-1.7-0.7c-0.6-0.2-1.1-0.5-1.7-0.7l-3.1,7.4l-1.9-0.8l7-17l0.5,0.2l0.6,0.2
			c0.5,0.2,1.2,0.5,1.9,0.8c0.7,0.3,1.4,0.6,2.2,0.9c3.9,1.6,5.2,3.9,3.9,7c-0.8,1.8-2,2.9-3.7,3.2c-0.5,0.1-1.1,0.1-1.7,0
			c0.5,0.7,0.9,2,1,3.8c0.1,0.7,0.1,1.5,0.1,2.4c0,0.9,0.1,1.5,0.1,1.9c0,0.3,0.1,0.6,0.1,0.9c0,0.2,0.1,0.5,0.1,0.7l-2.1-0.9
			c-0.1-0.4-0.2-1.1-0.2-2.1c0-0.9,0-1.7,0-2.2c0-1.3-0.1-2.3-0.3-3C639,365.4,638.6,364.7,638.1,364.4z M643.9,358
			c-0.2-0.4-0.6-0.8-1.1-1.1c-0.5-0.3-1.2-0.7-2.2-1.1c-1-0.4-1.9-0.7-2.6-0.8l-2.8,6.7c0.4,0.2,1,0.5,1.7,0.8l1.4,0.6
			c1.9,0.8,3.4,0.6,4.5-0.5c0.4-0.4,0.7-0.9,0.9-1.5c0.3-0.6,0.4-1.2,0.4-1.6C644.2,358.8,644.1,358.4,643.9,358z"/>
		<path d="M658.8,361.7l1.8,0.8l-0.6,19.6l-2-0.8l0.3-5.3l-7.4-3.1l-3.6,4l-2-0.8L658.8,361.7z M658.3,374.3l0.4-8.6l0.1-1.5l-1,1.1
			l-5.9,6.3L658.3,374.3z"/>
		<path d="M675.2,370.2l-5.5-2.3l0.6-1.5l12.9,5.4l-0.6,1.5l-5.6-2.3l-6.4,15.5l-1.9-0.8L675.2,370.2z"/>
		<path d="M695.8,379.9c-0.7-1.1-1.7-1.9-3.2-2.5c-1-0.4-1.9-0.6-2.8-0.4c-0.9,0.1-1.5,0.6-1.8,1.4c-0.3,0.8-0.3,1.7,0.1,2.5
			c0.3,0.6,0.8,1.4,1.6,2.2c0.8,0.9,1.4,1.6,1.8,2.1c1.6,1.9,2.1,3.7,1.4,5.4c-0.6,1.4-1.5,2.3-2.9,2.6c-1.3,0.3-2.8,0.2-4.4-0.5
			c-1.6-0.7-2.9-1.5-4-2.4c-0.3-0.2-0.4-0.5-0.6-0.6l1.1-1.3c0.5,0.8,1.4,1.5,2.6,2.2c0.4,0.2,0.8,0.4,1.3,0.6
			c1.1,0.5,2.1,0.6,3,0.4c0.9-0.2,1.5-0.7,1.8-1.6s0.3-1.8-0.2-2.7c-0.3-0.6-0.9-1.3-1.7-2.2c-0.8-0.9-1.4-1.5-1.8-2.1
			c-0.4-0.5-0.7-1.1-1-1.7c-0.6-1.3-0.6-2.5-0.1-3.6c0.8-1.8,2.2-2.7,4.4-2.5c0.9,0.1,1.7,0.2,2.4,0.5c1.9,0.8,3.2,1.7,3.9,2.7
			L695.8,379.9z"/>
		<path d="M698.5,395.3c-0.4-1-0.5-2.1-0.4-3.3c0.1-1.2,0.4-2.4,0.9-3.8c0.5-1.3,1.2-2.4,2.1-3.3c0.9-0.9,1.8-1.6,2.8-2
			c2-0.9,4.2-0.9,6.4,0c1.5,0.6,2.7,1.3,3.6,2.1c0.2,0.2,0.4,0.3,0.6,0.4l-1,1.6c-0.1-0.1-0.2-0.2-0.4-0.4c-0.2-0.2-0.5-0.5-1-0.9
			c-0.5-0.4-1.2-0.8-2.2-1.2c-1.9-0.8-3.6-0.8-5.2,0c-1.6,0.8-2.8,2.2-3.7,4.3c-0.9,2.1-1.1,4-0.6,5.8s1.7,3,3.5,3.8
			c1.4,0.6,2.8,0.9,4,0.9c0.3,0,0.6,0,0.8-0.1l-0.6,1.6c-0.3,0-0.6,0-0.9-0.1c-0.3,0-0.8-0.1-1.5-0.2c-0.7-0.1-1.5-0.4-2.6-0.8
			c-1.1-0.4-2-1.1-2.8-1.9C699.5,397.3,698.9,396.4,698.5,395.3z"/>
		<path d="M720.7,387.4l1.9,0.8l-3.1,7.6l8.8,3.7l3.1-7.6l1.9,0.8l-7,17l-1.9-0.8l3.3-7.9l-8.8-3.7l-3.3,7.9l-1.9-0.8L720.7,387.4z"
			/>
		<path d="M740.2,395.4l9.6,4l-0.6,1.5l-7.7-3.2l-2.5,6l5.6,2.3l-0.6,1.5l-5.6-2.3l-2.7,6.6l8.5,3.5l-0.6,1.5l-10.4-4.3L740.2,395.4
			z"/>
		<path d="M755.8,401.9l1.7,0.7l2.9,15l0.4,3.4l1.3-3.5l4.6-11.1l1.7,0.7l-7,17l-1.7-0.7l-2.9-14.7l-0.5-3.7l-1.4,3.7l-4.5,10.8
			l-1.7-0.7L755.8,401.9z"/>
	</g>
	<g>
		<path d="M872.8,380.9l0.8,1.9l-9.1,3.8l12.3,3.7l0.9,2.2l-9.7-3c-0.3,0.4-0.7,1.1-1.4,2c-1.4,2.1-2.4,3.6-3,4.5
			c-0.6,0.9-1.2,1.8-1.9,2.6l-0.9,1.3l-0.9-2.2c0-0.1,0.1-0.1,0.2-0.2c0.1-0.1,0.1-0.2,0.2-0.2c0.1-0.1,0.2-0.2,0.3-0.3
			c0.1-0.1,0.3-0.3,0.5-0.7c0.3-0.3,0.6-0.8,1.1-1.5c0.5-0.6,0.9-1.3,1.4-2c0.5-0.7,0.9-1.4,1.4-2c0.4-0.7,0.9-1.3,1.2-1.8l-4-1.3
			l-5.4,2.3l-0.8-1.9L872.8,380.9z"/>
		<path d="M865,408.4c0.1-2.2,1-4.1,2.9-5.7c0.9-0.7,2-1.4,3.3-1.9c1.3-0.5,2.6-0.8,3.9-0.9c1.3,0,2.4,0.2,3.4,0.6
			c2,0.8,3.5,2.4,4.4,4.6c0.9,2.2,0.9,4.3-0.1,6.2c-1,1.9-2.7,3.4-5.1,4.4c-2.8,1.2-5.2,1.3-7.4,0.5c-2.1-0.8-3.7-2.4-4.6-4.7
			C865.2,410.5,865,409.5,865,408.4z M869.3,404.2c-1.6,1.2-2.4,2.7-2.6,4.4c-0.1,0.8,0.1,1.7,0.4,2.6c0.7,1.8,1.9,2.9,3.6,3.4
			c1.7,0.5,3.6,0.3,5.7-0.6c2.1-0.9,3.7-2.1,4.6-3.6c0.9-1.5,1-3.1,0.3-4.8s-1.9-2.8-3.6-3.4c-1.7-0.6-3.7-0.4-6,0.6
			C870.9,403.2,870,403.7,869.3,404.2z"/>
		<path d="M888.2,418.2l0.7,1.7l-8.6,12.7l-2.1,2.7l3.4-1.6l11.1-4.6l0.7,1.7l-17,7l-0.7-1.7l8.3-12.4l2.2-3l-3.6,1.6l-10.8,4.5
			l-0.7-1.7L888.2,418.2z"/>
		<path d="M896.5,442.3l-2.3-5.5l1.5-0.6l5.4,12.9l-1.5,0.6l-2.3-5.5l-15.5,6.4l-0.8-1.9L896.5,442.3z"/>
		<path d="M895.8,463.6c-0.2-0.6-0.5-1.2-0.7-1.7c-0.2-0.6-0.5-1.1-0.7-1.7l-7.4,3.1l-0.8-1.9l17-7l0.2,0.5l0.3,0.6
			c0.2,0.5,0.5,1.2,0.8,1.9c0.3,0.7,0.6,1.4,0.9,2.2c1.6,3.9,0.9,6.5-2.2,7.7c-1.8,0.8-3.5,0.6-4.9-0.3c-0.4-0.3-0.8-0.7-1.2-1.2
			c-0.1,0.9-0.8,2-2,3.4c-0.5,0.5-1,1.1-1.6,1.8c-0.6,0.7-1,1.1-1.2,1.4c-0.2,0.3-0.4,0.5-0.5,0.7c-0.2,0.2-0.3,0.4-0.4,0.5
			l-0.9-2.1c0.2-0.4,0.7-0.9,1.3-1.6c0.7-0.7,1.2-1.2,1.5-1.6c0.9-1,1.6-1.8,1.9-2.3C895.7,465,895.9,464.2,895.8,463.6z
			 M904.4,463.2c0.1-0.5,0.1-1,0-1.6c-0.1-0.6-0.3-1.4-0.8-2.4c-0.4-1-0.8-1.8-1.2-2.4l-6.7,2.8c0.1,0.4,0.4,1,0.7,1.8l0.6,1.4
			c0.8,1.9,2,2.8,3.5,2.8c0.5,0,1.1-0.1,1.7-0.4c0.6-0.3,1.1-0.5,1.4-0.9C904.1,464,904.3,463.6,904.4,463.2z"/>
		<path d="M912.3,476.4l0.8,1.9l-14.3,13.4l-0.8-2l4-3.6l-3.1-7.4l-5.4,0.2l-0.8-2L912.3,476.4z M903.1,485l6.4-5.8l1.1-1l-1.5,0.1
			l-8.7,0.3L903.1,485z"/>
		<path d="M904.5,504.4c-0.6-0.8-1.1-1.6-1.5-2.5c-0.4-0.9-1-2.4-1.8-4.3l-0.4-1l17-7l0.4,1l1.6,3.8c0.8,1.9,1,3.4,0.7,4.6
			c-0.3,1.2-1.1,2.1-2.5,2.6c-1.3,0.6-2.6,0.5-3.8-0.1c-0.4-0.2-0.8-0.6-1.1-1c0.4,1,0.4,2.1,0,3.2c-0.5,1.1-1.2,1.9-2.3,2.3
			c-1.7,0.7-3.2,0.7-4.4,0.1C905.7,505.7,905.1,505.2,904.5,504.4z M911.2,498.8l-0.9-2.2c-0.3-0.7-0.5-1.2-0.6-1.5l-6.6,2.7
			c0.2,0.8,0.5,1.8,0.9,2.8c0.4,1,0.8,1.8,1.2,2.3c1.1,1.6,2.6,2,4.5,1.2C911.8,503.3,912.3,501.5,911.2,498.8z M918.4,494.5
			c-0.5-1.1-0.9-1.9-1.2-2.5l-6,2.5c0.1,0.3,0.4,0.9,0.8,1.9l0.8,2c0.4,0.9,0.9,1.4,1.8,1.7c0.8,0.2,1.7,0.2,2.7-0.3
			C919.1,499,919.5,497.2,918.4,494.5z"/>
		<path d="M926.9,511.5l0.8,1.8l-14.3,13.4l-0.8-2l4-3.6l-3.1-7.4L908,514l-0.8-2L926.9,511.5z M917.7,520.1l6.4-5.8l1.1-1l-1.5,0.1
			l-8.7,0.3L917.7,520.1z M930.6,507.9c0.3,0.8,0.1,1.3-0.7,1.7c-0.6,0.3-1.2,0.2-1.6-0.3c-0.1-0.1-0.2-0.3-0.3-0.6
			c-0.1-0.3-0.1-0.5,0-0.8c0.1-0.3,0.3-0.5,0.6-0.7c0.5-0.2,0.9-0.2,1.3-0.1C930.2,507.3,930.5,507.6,930.6,507.9z M932.8,513.3
			c0.3,0.8,0.1,1.3-0.7,1.7c-0.6,0.3-1.2,0.2-1.6-0.3c-0.1-0.1-0.2-0.3-0.3-0.6c-0.1-0.3-0.1-0.5,0-0.8c0.1-0.3,0.3-0.5,0.6-0.7
			c0.5-0.2,0.9-0.2,1.3-0.1C932.4,512.7,932.7,512.9,932.8,513.3z"/>
		<path d="M933.3,534.1c0.3-1.2,0.1-2.6-0.5-4c-0.4-1-1-1.8-1.7-2.3s-1.5-0.6-2.3-0.3c-0.8,0.3-1.4,1-1.7,1.8
			c-0.2,0.6-0.4,1.6-0.4,2.7c-0.1,1.2-0.1,2.1-0.2,2.8c-0.2,2.5-1.2,4.1-2.8,4.8c-1.4,0.6-2.7,0.5-3.9-0.2c-1.2-0.7-2.1-1.9-2.8-3.5
			c-0.7-1.6-1-3.1-1.1-4.5c0-0.4,0-0.6,0-0.8l1.7-0.2c-0.1,0.9,0,2.1,0.3,3.4c0.1,0.4,0.3,0.9,0.5,1.4c0.5,1.1,1.1,1.9,1.8,2.4
			c0.7,0.5,1.5,0.6,2.4,0.2s1.5-1,1.7-2c0.2-0.7,0.3-1.6,0.3-2.8c0-1.2,0.1-2.1,0.2-2.8c0.1-0.7,0.3-1.3,0.5-1.9
			c0.5-1.3,1.3-2.2,2.5-2.7c1.8-0.8,3.5-0.3,4.9,1.4c0.6,0.7,1,1.4,1.3,2.1c0.8,1.9,1.1,3.5,0.9,4.7L933.3,534.1z"/>
		<path d="M939.6,549.2c0.3-1.2,0.1-2.6-0.5-4c-0.4-1-1-1.8-1.7-2.3c-0.7-0.5-1.5-0.6-2.3-0.3c-0.8,0.3-1.4,1-1.7,1.9
			c-0.2,0.6-0.4,1.6-0.4,2.7c-0.1,1.2-0.1,2.1-0.2,2.8c-0.2,2.5-1.2,4.1-2.8,4.8c-1.4,0.6-2.7,0.5-3.9-0.2c-1.2-0.7-2.1-1.9-2.8-3.5
			s-1-3.1-1.1-4.5c0-0.4,0-0.6,0-0.8l1.7-0.2c-0.1,0.9,0,2.1,0.3,3.4c0.1,0.4,0.3,0.9,0.5,1.4c0.5,1.1,1.1,1.9,1.8,2.4
			c0.7,0.5,1.5,0.6,2.4,0.2s1.4-1,1.7-2c0.2-0.7,0.3-1.6,0.3-2.8c0-1.2,0.1-2.1,0.2-2.8c0.1-0.7,0.3-1.3,0.5-1.9
			c0.5-1.3,1.3-2.2,2.5-2.7c1.8-0.8,3.5-0.3,4.9,1.4c0.6,0.7,1,1.4,1.3,2.1c0.8,1.9,1.1,3.5,0.9,4.7L939.6,549.2z"/>
		<path d="M944.9,555l4,9.6l-1.5,0.6l-3.2-7.7l-6,2.5l2.3,5.6l-1.5,0.6l-2.3-5.6l-6.6,2.7l3.5,8.5l-1.5,0.6l-4.3-10.4L944.9,555z"/>
	</g>
	<g>
		<path d="M975,385.7l0.8,1.9l-7.6,3.1l3.7,8.8l7.6-3.1l0.8,1.9l-17,7l-0.8-1.9l7.9-3.3l-3.7-8.8l-7.9,3.3l-0.8-1.9L975,385.7z"/>
		<path d="M968,415.2c0.1-2.2,1-4.1,2.9-5.7c0.9-0.7,2-1.4,3.3-1.9c1.3-0.5,2.6-0.8,3.9-0.9c1.3,0,2.4,0.2,3.4,0.6
			c2,0.8,3.5,2.4,4.4,4.6c0.9,2.2,0.9,4.3-0.1,6.2c-1,1.9-2.7,3.4-5.1,4.4c-2.8,1.2-5.2,1.3-7.4,0.5c-2.1-0.8-3.7-2.4-4.6-4.7
			C968.2,417.3,968,416.2,968,415.2z M972.4,411c-1.6,1.2-2.4,2.7-2.6,4.4c-0.1,0.8,0.1,1.7,0.4,2.6c0.7,1.8,1.9,2.9,3.6,3.4
			c1.7,0.5,3.6,0.3,5.7-0.6c2.1-0.9,3.7-2.1,4.6-3.6c0.9-1.5,1-3.1,0.3-4.8c-0.7-1.7-1.9-2.8-3.6-3.4c-1.7-0.6-3.7-0.4-6,0.6
			C973.9,410,973.1,410.4,972.4,411z M989.3,407.5c0.3,0.8,0.1,1.3-0.7,1.7c-0.6,0.3-1.2,0.2-1.6-0.3c-0.1-0.1-0.2-0.3-0.3-0.6
			c-0.1-0.3-0.1-0.5,0-0.8c0.1-0.3,0.3-0.5,0.6-0.7c0.5-0.2,0.9-0.2,1.3-0.1C988.8,406.8,989.1,407.1,989.3,407.5z M991.5,412.8
			c0.3,0.8,0.1,1.3-0.7,1.7c-0.6,0.3-1.2,0.2-1.6-0.3c-0.1-0.1-0.2-0.3-0.3-0.6c-0.1-0.3-0.1-0.5,0-0.8c0.1-0.3,0.3-0.5,0.6-0.7
			c0.5-0.2,0.9-0.2,1.3-0.1C991.1,412.2,991.3,412.4,991.5,412.8z"/>
		<path d="M983.9,434.3c-0.2-0.6-0.5-1.2-0.7-1.7c-0.2-0.6-0.5-1.1-0.7-1.7l-7.4,3.1l-0.8-1.9l17-7l0.2,0.5l0.2,0.6
			c0.2,0.5,0.5,1.2,0.8,1.9c0.3,0.7,0.6,1.4,0.9,2.2c1.6,3.9,0.9,6.5-2.2,7.7c-1.8,0.8-3.5,0.6-4.9-0.3c-0.4-0.3-0.8-0.7-1.2-1.2
			c-0.1,0.9-0.8,2-2,3.4c-0.5,0.5-1,1.1-1.6,1.8c-0.6,0.7-1,1.1-1.2,1.4c-0.2,0.3-0.4,0.5-0.5,0.7c-0.1,0.2-0.3,0.4-0.4,0.5
			l-0.9-2.1c0.2-0.4,0.7-0.9,1.3-1.6c0.7-0.7,1.2-1.2,1.5-1.6c0.9-1,1.6-1.8,1.9-2.3C983.8,435.6,984,434.9,983.9,434.3z
			 M992.5,433.8c0.1-0.5,0.1-1,0-1.6c-0.1-0.6-0.3-1.4-0.8-2.4c-0.4-1-0.8-1.8-1.2-2.4l-6.7,2.8c0.1,0.4,0.4,1,0.7,1.8l0.6,1.4
			c0.8,1.9,2,2.8,3.5,2.8c0.5,0,1.1-0.1,1.7-0.4c0.6-0.3,1.1-0.5,1.4-0.9C992.1,434.7,992.4,434.3,992.5,433.8z"/>
		<path d="M998.5,442.4l0.7,1.7l-8.6,12.7l-2.1,2.7l3.4-1.6l11.1-4.6l0.7,1.7l-17,7l-0.7-1.7l8.4-12.4l2.2-3l-3.6,1.6l-10.8,4.5
			l-0.7-1.7L998.5,442.4z"/>
		<path d="M1006.6,462l4,9.6l-1.5,0.6l-3.2-7.7l-6,2.5l2.3,5.6l-1.5,0.6l-2.3-5.6l-6.6,2.7l3.5,8.5l-1.5,0.6l-4.3-10.4L1006.6,462z"
			/>
		<path d="M1005.7,487c-0.2-0.6-0.5-1.2-0.7-1.7c-0.2-0.6-0.5-1.1-0.7-1.7l-7.4,3.1l-0.8-1.9l17-7l0.2,0.5l0.2,0.6
			c0.2,0.5,0.5,1.2,0.8,1.9c0.3,0.7,0.6,1.4,0.9,2.2c1.6,3.9,0.9,6.5-2.2,7.7c-1.8,0.8-3.5,0.6-4.9-0.3c-0.4-0.3-0.8-0.7-1.2-1.2
			c-0.1,0.9-0.8,2-2,3.4c-0.5,0.5-1,1.1-1.6,1.8c-0.6,0.7-1,1.1-1.2,1.4c-0.2,0.3-0.4,0.5-0.5,0.7c-0.1,0.2-0.3,0.4-0.4,0.5
			l-0.9-2.1c0.2-0.4,0.7-0.9,1.3-1.6c0.7-0.7,1.2-1.2,1.5-1.6c0.9-1,1.6-1.8,1.9-2.3C1005.6,488.3,1005.8,487.6,1005.7,487z
			 M1014.3,486.5c0.1-0.5,0.1-1,0-1.6c-0.1-0.6-0.3-1.4-0.8-2.4c-0.4-1-0.8-1.8-1.2-2.4l-6.7,2.8c0.1,0.4,0.4,1,0.7,1.8l0.6,1.4
			c0.8,1.9,2,2.8,3.5,2.8c0.5,0,1.1-0.1,1.7-0.4c0.6-0.3,1.1-0.5,1.4-0.9C1014,487.4,1014.2,487,1014.3,486.5z"/>
	</g>
	<g>
		<path d="M673,267.5l9.5,3.9l-0.6,1.5l-7.6-3.1l-2.6,6.2l5.7,2.3l-0.6,1.5l-5.7-2.3l-3.2,7.8l-1.9-0.8L673,267.5z"/>
		<path d="M692,275.4l1.8,0.8l-0.6,19.6l-2-0.8l0.3-5.3l-7.4-3.1l-3.6,4l-2-0.8L692,275.4z M691.6,287.9l0.4-8.6l0.1-1.5l-1,1.1
			l-5.9,6.3L691.6,287.9z"/>
		<path d="M715.6,287.9c-1-1.1-2.4-2-4.2-2.7c-1.8-0.7-3.5-0.7-5.1,0c-1.6,0.8-2.8,2.2-3.7,4.4c-0.9,2.1-1.1,4.1-0.6,5.8
			c0.5,1.7,1.6,3,3.3,3.7c1.7,0.7,3.2,1,4.4,1l2-4.9l-3.5-1.5l0.6-1.4l5.3,2.2l-3,7.4c-0.2-0.1-0.5-0.1-0.9-0.1
			c-1.9,0-3.5-0.3-5-0.9c-1.5-0.6-2.6-1.3-3.4-2.1c-0.8-0.8-1.3-1.7-1.7-2.8c-0.7-2.1-0.5-4.4,0.5-7c1.1-2.6,2.7-4.3,4.8-5.2
			c2.1-0.9,4.3-0.9,6.6,0.1c1.3,0.5,2.5,1.2,3.5,2c0.3,0.2,0.6,0.4,0.9,0.6L715.6,287.9z"/>
		<path d="M720,306.1c-1.5-1.6-2.2-3.6-2-6c0.1-1.2,0.4-2.4,1-3.7c0.5-1.3,1.3-2.4,2.1-3.3c0.9-0.9,1.8-1.6,2.8-2
			c2-0.8,4.1-0.8,6.4,0.1c2.2,0.9,3.7,2.4,4.4,4.5c0.7,2,0.5,4.3-0.5,6.7c-1.2,2.8-2.8,4.6-4.8,5.6c-2.1,0.9-4.3,0.9-6.6,0
			C721.6,307.5,720.7,306.9,720,306.1z M720.1,300.1c-0.2,2,0.2,3.6,1.3,4.9c0.5,0.7,1.2,1.2,2.1,1.5c1.8,0.7,3.4,0.7,4.9-0.2
			c1.5-0.8,2.8-2.3,3.6-4.5c0.9-2.1,1.1-4.1,0.7-5.8c-0.4-1.7-1.5-2.9-3.2-3.6c-1.7-0.7-3.4-0.7-5,0.1c-1.6,0.8-2.9,2.3-3.8,4.6
			C720.4,298.3,720.2,299.2,720.1,300.1z"/>
		<path d="M746.6,299.7l-5.5-2.3l0.6-1.5l12.9,5.4l-0.6,1.5l-5.6-2.3l-6.4,15.5l-1.9-0.8L746.6,299.7z"/>
		<path d="M763.1,306.5l-5.5-2.3l0.6-1.5l12.9,5.4l-0.6,1.5l-5.6-2.3l-6.4,15.5l-1.9-0.8L763.1,306.5z"/>
		<path d="M776.4,310.3l9.6,4l-0.6,1.5l-7.7-3.2l-2.5,6l5.6,2.3l-0.6,1.5l-5.6-2.3l-2.7,6.6l8.5,3.5l-0.6,1.5l-10.4-4.3L776.4,310.3
			z"/>
	</g>
	<g>
		<path d="M690,176.5l-5.5-2.3l0.6-1.5l12.9,5.4l-0.6,1.5l-5.5-2.3l-6.4,15.5l-1.9-0.8L690,176.5z"/>
		<path d="M704.7,192.1c-0.6-0.2-1.1-0.5-1.7-0.7c-0.6-0.2-1.1-0.5-1.7-0.7l-3.1,7.4l-1.9-0.8l7-17l0.5,0.2l0.6,0.2
			c0.5,0.2,1.2,0.5,1.9,0.8c0.7,0.3,1.4,0.6,2.2,0.9c3.9,1.6,5.2,3.9,3.9,7c-0.8,1.8-2,2.9-3.7,3.2c-0.5,0.1-1.1,0.1-1.7,0
			c0.5,0.7,0.9,2,1,3.8c0.1,0.7,0.1,1.5,0.1,2.4c0,0.9,0.1,1.5,0.1,1.9c0,0.3,0.1,0.6,0.1,0.9c0,0.2,0.1,0.5,0.1,0.7l-2.1-0.9
			c-0.1-0.4-0.2-1.1-0.2-2.1c0-0.9,0-1.7,0-2.2c0-1.3-0.1-2.3-0.3-3C705.6,193.2,705.2,192.5,704.7,192.1z M710.5,185.7
			c-0.2-0.4-0.6-0.8-1.1-1.1c-0.5-0.3-1.2-0.7-2.2-1.1s-1.9-0.7-2.6-0.8l-2.8,6.7c0.4,0.2,1,0.5,1.7,0.8l1.4,0.6
			c1.9,0.8,3.4,0.6,4.5-0.5c0.4-0.4,0.7-0.9,0.9-1.5c0.2-0.6,0.4-1.2,0.4-1.6C710.8,186.6,710.7,186.2,710.5,185.7z"/>
		<path d="M717.2,205.3c-1.5-1.6-2.2-3.6-2-6c0.1-1.2,0.4-2.4,1-3.7c0.5-1.3,1.3-2.4,2.1-3.3s1.8-1.6,2.8-2c2-0.8,4.1-0.8,6.4,0.1
			c2.2,0.9,3.7,2.4,4.4,4.5c0.7,2,0.5,4.3-0.5,6.7c-1.2,2.8-2.8,4.6-4.8,5.6c-2.1,0.9-4.3,0.9-6.6,0
			C718.8,206.6,717.9,206,717.2,205.3z M717.3,199.2c-0.2,2,0.2,3.6,1.3,4.9c0.5,0.7,1.2,1.2,2.1,1.5c1.8,0.7,3.4,0.7,4.9-0.1
			c1.5-0.8,2.8-2.3,3.6-4.5c0.9-2.1,1.1-4.1,0.7-5.8c-0.4-1.7-1.5-2.9-3.2-3.6s-3.4-0.7-5,0.1c-1.6,0.8-2.9,2.3-3.8,4.6
			C717.6,197.4,717.4,198.3,717.3,199.2z"/>
		<path d="M741.7,196.2l2.7,1.1l-0.8,12.6l-0.5,3.5l2.1-2.9l8.1-9.6l2.5,1.1L751,220l-1.9-0.8l3.2-11l1.6-5.2l-3.4,4.4l-8,9.1
			l-1-0.4l0.6-12.2l0.5-5.6l-2.5,4.8l-5.4,10.1l-1.8-0.8L741.7,196.2z"/>
		<path d="M764.3,218.5l-2.8-1.1l-2.5,5.9l-1.9-0.8l7-17l0.9,0.4l4.2,1.7c3.9,1.6,5.1,4.2,3.6,7.8c-0.7,1.8-1.9,3-3.4,3.5
			C768.1,219.5,766.3,219.4,764.3,218.5z M770.2,209.8c-0.5-0.4-1.2-0.7-2.1-1.1c-0.9-0.4-1.8-0.7-2.7-0.8l-3.3,8.1
			c0.7,0.4,1.4,0.7,2.3,1.1c1.6,0.7,3,0.8,4.1,0.5c1.1-0.3,2-1.3,2.6-2.8C772.1,212.6,771.7,210.9,770.2,209.8z"/>
		<path d="M780.8,212.4l9.6,4l-0.6,1.5l-7.7-3.2l-2.5,6l5.6,2.3l-0.6,1.5l-5.6-2.3l-2.7,6.6l8.5,3.5l-0.6,1.5l-10.4-4.3L780.8,212.4
			z"/>
		<path d="M799.8,222l-5.5-2.3l0.6-1.5l12.9,5.4l-0.6,1.5l-5.5-2.3l-6.4,15.5l-1.9-0.8L799.8,222z"/>
		<path d="M813,225.8l9.6,4l-0.6,1.5l-7.7-3.2l-2.5,6l5.6,2.3l-0.6,1.5l-5.6-2.3l-2.7,6.6l8.5,3.5l-0.6,1.5l-10.4-4.3L813,225.8z"/>
		<path d="M828.7,232.3l1.7,0.7l2.9,15l0.4,3.4l1.3-3.5l4.6-11.1l1.7,0.7l-7,17l-1.7-0.7l-2.9-14.7l-0.5-3.7l-1.4,3.7l-4.5,10.8
			l-1.7-0.7L828.7,232.3z"/>
	</g>
	<g>
		<path d="M750.5,112.5l-2.8-1.1l-2.5,5.9l-1.9-0.8l7-17l0.9,0.4l4.2,1.7c3.9,1.6,5.1,4.2,3.6,7.8c-0.7,1.8-1.9,3-3.4,3.5
			C754.2,113.5,752.5,113.3,750.5,112.5z M756.4,103.8c-0.5-0.4-1.2-0.7-2.1-1.1c-0.9-0.4-1.8-0.7-2.7-0.8l-3.3,8.1
			c0.7,0.4,1.4,0.7,2.3,1.1c1.6,0.7,3,0.8,4.1,0.5c1.1-0.3,2-1.3,2.6-2.8C758.2,106.5,757.9,104.9,756.4,103.8z"/>
		<path d="M771.6,108.3l1.8,0.8l-0.6,19.6l-2-0.8l0.3-5.3l-7.4-3.1l-3.6,4l-2-0.8L771.6,108.3z M771.2,120.9l0.4-8.6l0.1-1.5l-1,1.1
			l-5.9,6.3L771.2,120.9z"/>
		<path d="M784.4,113.6l1.9,0.8l-3.8,9.2c-1.4,3.4-1.3,5.7,0.2,7c0.5,0.4,1.1,0.8,1.8,1.1c1.4,0.6,2.7,0.6,3.8-0.1
			c1.1-0.6,2.1-2.1,3.1-4.4l3.8-9.2l1.9,0.8l-4,9.7c-2,4.9-5.1,6.4-9.3,4.7c-3.3-1.4-4.7-3.6-4.3-6.6c0.1-1,0.4-2.1,0.9-3.3
			L784.4,113.6z"/>
		<path d="M803.5,121.5l1.9,0.8l-3.8,9.1l11.3-6l2.2,0.9l-9,4.7c0.1,0.5,0.2,1.3,0.5,2.4c0.5,2.5,0.9,4.2,1.1,5.3
			c0.2,1.1,0.4,2.1,0.5,3.2l0.2,1.5l-2.2-0.9c0-0.1,0-0.2,0-0.3c0-0.1,0-0.2,0-0.3c0-0.1,0-0.3,0-0.4c0-0.2,0-0.4-0.1-0.9
			c-0.1-0.4-0.1-1-0.3-1.8c-0.1-0.8-0.3-1.6-0.4-2.4c-0.2-0.8-0.3-1.6-0.5-2.4c-0.2-0.8-0.3-1.5-0.4-2.1l-3.8,1.9l-2.3,5.4l-1.9-0.8
			L803.5,121.5z"/>
		<path d="M821,128.8l9.6,4l-0.6,1.5l-7.7-3.2l-2.5,6l5.6,2.3l-0.6,1.5l-5.6-2.3l-2.7,6.6l8.5,3.5l-0.6,1.5l-10.4-4.3L821,128.8z"/>
		<path d="M836.6,135.3l1.7,0.7l2.9,15l0.4,3.4l1.3-3.5l4.6-11.1l1.7,0.7l-7,17l-1.7-0.7l-2.9-14.7l-0.5-3.7l-1.4,3.7l-4.5,10.8
			l-1.7-0.7L836.6,135.3z"/>
	</g>
	<g>
		<path d="M501.4,390.6c1.7-2.2,2.9-4.4,3.8-6.4c1-2.4,1.2-4.4,0.6-5.8c-0.6-1.5-1.6-2.1-2.9-2.1c-0.4,0-0.9,0.1-1.3,0.3
			c-0.8,0.3-1.5,0.8-2,1.5c-0.6,0.7-1,1.3-1.2,2.1l-1.2-0.7c0.3-1.3,1.2-2.5,2.4-3.5c0.5-0.4,1-0.7,1.8-1c1.5-0.6,2.8-0.7,3.9-0.2
			c1.1,0.5,1.9,1.3,2.4,2.6c0.6,1.5,0.6,3.3,0,5.3c-0.6,2-1.7,4.1-3.3,6.2l7.7-3.2l0.6,1.5l-10.5,4.3L501.4,390.6z"/>
		<path d="M514.3,384.7c-0.2-0.4-0.2-0.8,0-1.3c0.1-0.4,0.4-0.7,0.8-0.9c0.4-0.2,0.7-0.1,1.1,0c0.3,0.2,0.6,0.4,0.7,0.7
			c0.2,0.5,0.3,1,0.1,1.4c-0.1,0.4-0.4,0.7-0.6,0.8c-0.3,0.1-0.5,0.2-0.7,0.2c-0.2,0-0.3,0-0.5-0.1
			C514.7,385.4,514.5,385.1,514.3,384.7z"/>
		<path d="M453.5,423.7l2-0.8l9.3,10.2l2,2.3l-0.3-3l-0.8-13.7l2-0.8l0.9,19.5l-1.6,0.7L453.5,423.7z"/>
		<path d="M472.7,415.8l1.9-0.8l7,17l-1.9,0.8L472.7,415.8z"/>
		<path d="M491.7,427.1c-2.2-0.1-4.1-1-5.7-2.9c-0.7-0.9-1.4-2-1.9-3.3c-0.5-1.3-0.8-2.6-0.9-3.9c0-1.3,0.2-2.4,0.6-3.4
			c0.8-2,2.4-3.5,4.6-4.4c2.2-0.9,4.3-0.9,6.2,0.1c1.9,1,3.4,2.7,4.4,5.1c1.2,2.8,1.3,5.2,0.5,7.4c-0.8,2.1-2.4,3.7-4.7,4.6
			C493.8,426.9,492.7,427.1,491.7,427.1z M487.5,422.8c1.2,1.6,2.7,2.4,4.4,2.6c0.8,0.1,1.7-0.1,2.6-0.4c1.8-0.7,2.9-1.9,3.4-3.6
			c0.5-1.7,0.3-3.6-0.6-5.7c-0.9-2.1-2.1-3.7-3.6-4.6c-1.5-0.9-3.1-1-4.8-0.3s-2.8,1.9-3.4,3.6c-0.6,1.7-0.4,3.7,0.6,6
			C486.5,421.2,486.9,422.1,487.5,422.8z"/>
		<path d="M501.5,403.9l1.9-0.8l6.4,15.5l7-2.9l0.6,1.5l-8.9,3.7L501.5,403.9z"/>
		<path d="M515.8,397.9l1.9-0.8l7,17l-1.9,0.8L515.8,397.9z"/>
		<path d="M524.7,394.2l1.7-0.7l12.7,8.6l2.7,2.1l-1.6-3.4l-4.6-11.1l1.7-0.7l7,17l-1.7,0.7l-12.4-8.4l-3-2.2l1.6,3.6l4.5,10.8
			l-1.7,0.7L524.7,394.2z"/>
		<path d="M544.3,386.1l9.6-4l0.6,1.5l-7.7,3.2l2.5,6l5.6-2.3l0.6,1.5l-5.6,2.3l2.7,6.6l8.5-3.5l0.6,1.5l-10.4,4.3L544.3,386.1z"/>
		<path d="M560,379.6l1.7-0.7l12.7,8.6l2.7,2.1l-1.6-3.4l-4.6-11.1l1.7-0.7l7,17L578,392l-12.4-8.4l-3-2.2l1.6,3.6l4.5,10.8
			l-1.7,0.7L560,379.6z"/>
	</g>
	<g>
		<path d="M380.8,348c-2.2-0.1-4.1-1-5.7-2.9c-0.7-0.9-1.4-2-1.9-3.3c-0.5-1.3-0.8-2.6-0.9-3.9c0-1.3,0.2-2.4,0.6-3.4
			c0.8-2,2.4-3.5,4.6-4.4c2.2-0.9,4.3-0.9,6.2,0.1c1.9,1,3.4,2.7,4.4,5.1c1.2,2.8,1.3,5.2,0.5,7.4c-0.8,2.1-2.4,3.7-4.7,4.6
			C382.9,347.8,381.9,348.1,380.8,348z M376.6,343.7c1.2,1.6,2.7,2.4,4.4,2.6c0.8,0.1,1.7-0.1,2.6-0.4c1.8-0.7,2.9-1.9,3.4-3.6
			c0.5-1.7,0.3-3.6-0.6-5.7c-0.9-2.1-2.1-3.7-3.6-4.6c-1.5-0.9-3.1-1-4.8-0.3s-2.8,1.9-3.4,3.6c-0.6,1.7-0.4,3.7,0.6,6
			C375.6,342.2,376,343,376.6,343.7z"/>
		<path d="M405.4,338.1c-0.8,0.6-1.6,1.1-2.5,1.5c-0.9,0.4-2.4,1-4.3,1.8l-1,0.4l-7-17l1-0.4l3.8-1.6c1.9-0.8,3.4-1,4.6-0.7
			c1.2,0.3,2.1,1.1,2.6,2.5c0.6,1.3,0.5,2.6-0.1,3.8c-0.2,0.4-0.6,0.8-1,1.1c1-0.4,2.1-0.4,3.2,0c1.1,0.5,1.9,1.2,2.3,2.3
			c0.7,1.7,0.7,3.2,0.1,4.4C406.7,336.8,406.2,337.5,405.4,338.1z M395.6,324.2c-1.1,0.5-1.9,0.9-2.5,1.2l2.5,6
			c0.3-0.1,0.9-0.4,1.9-0.8l2-0.8c0.9-0.4,1.4-0.9,1.7-1.8c0.2-0.8,0.2-1.7-0.3-2.7C400,323.5,398.3,323.1,395.6,324.2z
			 M399.8,331.4l-2.2,0.9c-0.7,0.3-1.2,0.5-1.5,0.6l2.7,6.6c0.8-0.2,1.8-0.5,2.8-0.9c1-0.4,1.8-0.8,2.3-1.2c1.6-1.1,2-2.6,1.2-4.5
			C404.3,330.7,402.5,330.2,399.8,331.4z"/>
		<path d="M417.9,332.6c-2.2-0.1-4.1-1-5.7-2.9c-0.7-0.9-1.4-2-1.9-3.3c-0.5-1.3-0.8-2.6-0.9-3.9c0-1.3,0.2-2.4,0.6-3.4
			c0.8-2,2.4-3.5,4.6-4.4c2.2-0.9,4.3-0.9,6.2,0.1c1.9,1,3.4,2.7,4.4,5.1c1.2,2.8,1.3,5.2,0.5,7.4c-0.8,2.1-2.4,3.7-4.7,4.6
			C420,332.5,419,332.7,417.9,332.6z M413.7,328.3c1.2,1.6,2.7,2.4,4.4,2.6c0.8,0.1,1.7-0.1,2.6-0.4c1.8-0.7,2.9-1.9,3.4-3.6
			c0.5-1.7,0.3-3.6-0.6-5.7c-0.9-2.1-2.1-3.7-3.6-4.6c-1.5-0.9-3.1-1-4.8-0.3c-1.7,0.7-2.8,1.9-3.4,3.6c-0.6,1.7-0.4,3.7,0.6,6
			C412.7,326.8,413.2,327.6,413.7,328.3z"/>
		<path d="M427.7,309.4l9.6-4l0.6,1.5l-7.7,3.2l2.5,6l5.6-2.3l0.6,1.5l-5.6,2.3l2.7,6.6l8.5-3.5l0.6,1.5l-10.4,4.3L427.7,309.4z"/>
		<path d="M443.4,302.9l1.7-0.7l12.7,8.6l2.7,2.1l-1.6-3.4l-4.6-11.1l1.7-0.7l7,17l-1.7,0.7L449,307l-3-2.2l1.6,3.6l4.5,10.8
			l-1.7,0.7L443.4,302.9z"/>
	</g>
	<g>
		<path d="M378.1,242.8l-2.8,1.1l2.5,5.9l-1.9,0.8l-7-17l0.9-0.4l4.2-1.7c3.9-1.6,6.6-0.6,8.1,3c0.7,1.8,0.8,3.4,0,4.9
			C381.4,240.8,380.1,242,378.1,242.8z M376.1,232.4c-0.6,0.1-1.3,0.3-2.2,0.7c-0.9,0.4-1.7,0.8-2.5,1.3l3.3,8.1
			c0.7-0.2,1.5-0.5,2.4-0.8c1.6-0.7,2.7-1.5,3.2-2.5c0.5-1,0.5-2.3-0.1-3.8C379.3,233.1,377.9,232.2,376.1,232.4z"/>
		<path d="M395.4,241.9c-2.2-0.1-4.1-1-5.7-2.9c-0.7-0.9-1.4-2-1.9-3.3c-0.5-1.3-0.8-2.6-0.9-3.9c0-1.3,0.2-2.4,0.6-3.4
			c0.8-2,2.4-3.5,4.6-4.4c2.2-0.9,4.3-0.9,6.2,0.1c1.9,1,3.4,2.7,4.4,5.1c1.2,2.8,1.3,5.2,0.5,7.4c-0.8,2.1-2.4,3.7-4.7,4.6
			C397.5,241.7,396.5,241.9,395.4,241.9z M391.2,237.6c1.2,1.6,2.7,2.4,4.4,2.6c0.8,0.1,1.7-0.1,2.6-0.4c1.8-0.7,2.9-1.9,3.4-3.6
			c0.5-1.7,0.3-3.6-0.6-5.7c-0.9-2.1-2.1-3.7-3.6-4.6c-1.5-0.9-3.1-1-4.8-0.3s-2.8,1.9-3.4,3.6c-0.6,1.7-0.4,3.7,0.6,6
			C390.2,236,390.6,236.8,391.2,237.6z"/>
		<path d="M414.6,217.6c-1.2-0.3-2.6-0.1-4,0.5c-1,0.4-1.8,1-2.3,1.7c-0.5,0.7-0.6,1.5-0.3,2.3c0.3,0.8,1,1.4,1.8,1.7
			c0.6,0.2,1.6,0.4,2.7,0.4c1.2,0.1,2.1,0.1,2.8,0.2c2.5,0.2,4.1,1.2,4.8,2.8c0.6,1.4,0.5,2.7-0.2,3.9c-0.7,1.2-1.9,2.1-3.5,2.8
			c-1.6,0.7-3.1,1-4.5,1.1c-0.4,0-0.6,0-0.8,0l-0.2-1.7c0.9,0.1,2.1,0,3.4-0.3c0.4-0.1,0.9-0.3,1.4-0.5c1.1-0.5,1.9-1.1,2.4-1.8
			c0.5-0.7,0.6-1.5,0.2-2.4c-0.4-0.9-1-1.5-2-1.7c-0.7-0.2-1.6-0.3-2.8-0.3c-1.2,0-2.1-0.1-2.8-0.2c-0.7-0.1-1.3-0.3-1.9-0.5
			c-1.3-0.5-2.2-1.3-2.7-2.5c-0.8-1.8-0.3-3.5,1.4-4.9c0.7-0.6,1.4-1,2.1-1.3c1.9-0.8,3.5-1.1,4.7-0.9L414.6,217.6z"/>
		<path d="M425,210.4l1.8-0.8l13.4,14.3l-2,0.8l-3.6-4l-7.4,3.1l0.2,5.4l-2,0.8L425,210.4z M433.5,219.6l-5.8-6.4l-1-1.1l0.1,1.5
			l0.3,8.7L433.5,219.6z"/>
		<path d="M437.7,205.1l1.9-0.8l3.8,9.2c1.4,3.4,3.1,5,5.1,4.9c0.7,0,1.3-0.2,2-0.5c1.4-0.6,2.3-1.5,2.7-2.8c0.3-1.2,0-3-0.9-5.3
			l-3.8-9.2l1.9-0.8l4,9.7c2,4.9,0.9,8.2-3.2,9.9c-3.3,1.3-5.8,0.8-7.7-1.7c-0.6-0.8-1.2-1.8-1.7-3L437.7,205.1z"/>
		<path d="M456.8,197.2l1.7-0.7l12.7,8.6l2.7,2.1l-1.6-3.4l-4.6-11.1l1.7-0.7l7,17l-1.7,0.7l-12.4-8.4l-3-2.2l1.6,3.6l4.5,10.8
			l-1.7,0.7L456.8,197.2z"/>
		<path d="M476.4,189.1l9.6-4l0.6,1.5l-7.7,3.2l2.5,6l5.6-2.3l0.6,1.5l-5.6,2.3l2.7,6.6l8.5-3.5l0.6,1.5l-10.4,4.3L476.4,189.1z"/>
		<path d="M492.1,182.6l1.7-0.7l12.7,8.6l2.7,2.1l-1.6-3.4l-4.6-11.1l1.7-0.7l7,17l-1.7,0.7l-12.4-8.4l-3-2.2l1.6,3.6l4.5,10.8
			l-1.7,0.7L492.1,182.6z"/>
	</g>
	<g>
		<path d="M321.9,156.1c-1.3-0.3-2.7-0.1-4.3,0.5c-1.1,0.4-1.9,1-2.4,1.8c-0.6,0.7-0.7,1.6-0.3,2.4c0.4,0.9,1,1.5,1.9,1.8
			c0.7,0.2,1.6,0.4,2.9,0.5c1.2,0.1,2.2,0.1,2.9,0.2c2.6,0.2,4.3,1.2,5,3c0.6,1.5,0.6,2.9-0.2,4.1c-0.7,1.2-2,2.2-3.6,2.9
			c-1.7,0.7-3.3,1.1-4.8,1.1c-0.4,0-0.7,0-0.9,0l-0.2-1.8c1,0.2,2.2,0,3.6-0.3c0.5-0.1,0.9-0.3,1.5-0.5c1.2-0.5,2-1.1,2.5-1.9
			c0.5-0.8,0.6-1.6,0.2-2.5c-0.4-0.9-1.1-1.5-2.2-1.8c-0.7-0.2-1.7-0.3-2.9-0.3c-1.2,0-2.2-0.1-2.9-0.2c-0.7-0.1-1.4-0.3-2-0.5
			c-1.4-0.6-2.3-1.4-2.8-2.6c-0.8-1.9-0.3-3.7,1.4-5.2c0.7-0.6,1.5-1.1,2.2-1.4c2-0.8,3.7-1.1,4.9-0.9L321.9,156.1z"/>
		<path d="M335.4,165.5c-1-0.5-2-1.2-2.8-2.1c-0.8-0.9-1.5-2.1-2.1-3.5c-0.6-1.4-0.9-2.7-0.9-4c0-1.3,0.2-2.5,0.6-3.6
			c0.9-2.2,2.5-3.8,4.8-4.7c1.6-0.7,3-1,4.2-1.2c0.3,0,0.5-0.1,0.7-0.1l0.5,2c-0.2,0-0.4,0-0.6,0c-0.3,0-0.7,0-1.4,0.1
			c-0.7,0.1-1.5,0.3-2.5,0.7c-2,0.8-3.3,2.1-3.9,3.9c-0.6,1.8-0.5,3.8,0.4,6c0.9,2.2,2.2,3.8,3.9,4.7c1.7,0.9,3.5,1,5.4,0.2
			c1.5-0.6,2.8-1.4,3.7-2.3c0.2-0.2,0.4-0.4,0.5-0.6l0.7,1.6c-0.2,0.2-0.5,0.4-0.7,0.6c-0.2,0.2-0.6,0.6-1.2,1
			c-0.6,0.4-1.4,0.9-2.6,1.3c-1.1,0.5-2.3,0.7-3.5,0.7C337.5,166.2,336.5,166,335.4,165.5z"/>
		<path d="M346,143.1l2-0.8l3.3,8l9.3-3.8l-3.3-8l2-0.8l7.4,17.9l-2,0.8l-3.4-8.3l-9.3,3.8l3.4,8.3l-2,0.8L346,143.1z"/>
		<path d="M366.5,134.6l2-0.8l6.7,16.3l7.4-3.1l0.6,1.6l-9.4,3.9L366.5,134.6z"/>
		<path d="M386.2,126.4l1.9-0.8l14.1,15.1l-2.1,0.9l-3.8-4.2l-7.8,3.2l0.2,5.6l-2.1,0.9L386.2,126.4z M395.3,136.1l-6.1-6.7l-1-1.2
			l0.1,1.6l0.3,9.1L395.3,136.1z"/>
		<path d="M413.1,118.1c-1.6,0-3.3,0.3-5.2,1.1c-1.9,0.8-3.1,2-3.7,3.8c-0.6,1.8-0.5,3.8,0.5,6c0.9,2.3,2.2,3.9,3.9,4.8
			c1.6,0.9,3.4,1,5.2,0.3c1.8-0.8,3.2-1.6,4-2.6l-2.1-5.2l-3.7,1.5l-0.6-1.5l5.6-2.3l3.2,7.7c-0.3,0.1-0.5,0.3-0.8,0.6
			c-1.4,1.4-2.9,2.4-4.4,3c-1.5,0.6-2.9,0.9-4.1,0.9c-1.2,0-2.3-0.3-3.3-0.8c-2.1-1-3.7-2.9-4.8-5.6c-1.1-2.7-1.3-5.2-0.4-7.4
			c0.9-2.2,2.5-3.8,5-4.8c1.4-0.6,2.7-0.9,4.1-1.1c0.3-0.1,0.7-0.1,1.1-0.2L413.1,118.1z"/>
		<path d="M417.4,113.5l2-0.8l7.8,10.5l2.4,3.6l-0.7-4.3l-1.3-13.1l1.5-0.6l8.4,10.2l2.6,3.4l-0.8-4.2l-2.1-12.8l2-0.8l2.8,19.8
			l-1.9,0.8l-9.1-11.1l-1.3-1.9l0.4,2.3l1.4,14.3l-1.7,0.7L417.4,113.5z"/>
		<path d="M444.2,102.4l10.1-4.2l0.6,1.5l-8.1,3.3l2.6,6.3l5.9-2.4l0.6,1.5l-5.9,2.4l2.9,6.9l8.9-3.7l0.6,1.6l-10.9,4.5L444.2,102.4
			z"/>
		<path d="M470.5,103.3c-0.6,0.3-1.2,0.5-1.8,0.7s-1.2,0.5-1.8,0.8l3.2,7.8l-2,0.8l-7.4-17.9l0.5-0.2l0.6-0.3c0.6-0.2,1.2-0.5,2-0.8
			c0.7-0.3,1.5-0.6,2.3-0.9c4.1-1.7,6.8-0.9,8.1,2.3c0.8,1.9,0.7,3.7-0.4,5.2c-0.3,0.5-0.7,0.9-1.2,1.3c0.9,0.2,2.1,0.8,3.6,2.1
			c0.6,0.5,1.2,1,1.9,1.7c0.7,0.6,1.2,1.1,1.5,1.3c0.3,0.2,0.5,0.4,0.7,0.6c0.2,0.2,0.4,0.3,0.6,0.4l-2.3,0.9
			c-0.4-0.3-1-0.7-1.7-1.4c-0.7-0.7-1.2-1.2-1.6-1.6c-1-1-1.9-1.6-2.5-2C472,103.4,471.2,103.2,470.5,103.3z M470.1,94.2
			c-0.5-0.1-1-0.1-1.6-0.1c-0.6,0.1-1.4,0.4-2.5,0.8c-1.1,0.4-1.9,0.9-2.6,1.3l2.9,7.1c0.4-0.1,1.1-0.4,1.9-0.7l1.5-0.6
			c2-0.8,3-2.1,3-3.7c0-0.6-0.1-1.2-0.4-1.8c-0.3-0.6-0.6-1.1-0.9-1.5C471,94.6,470.6,94.4,470.1,94.2z"/>
		<path d="M479.1,87.9l2-0.8l4,9.6l3.9-12.9l2.4-1l-3.2,10.2c0.4,0.3,1.1,0.8,2.1,1.4c2.2,1.5,3.8,2.5,4.7,3.1
			c0.9,0.6,1.9,1.3,2.7,2l1.3,1l-2.3,1c-0.1-0.1-0.2-0.1-0.2-0.2c-0.1-0.1-0.2-0.1-0.3-0.2c-0.1-0.1-0.2-0.2-0.3-0.3
			c-0.1-0.1-0.4-0.3-0.7-0.6c-0.4-0.3-0.9-0.6-1.6-1.1c-0.7-0.5-1.4-1-2.1-1.5c-0.7-0.5-1.4-1-2.2-1.4c-0.7-0.5-1.3-0.9-1.9-1.3
			l-1.4,4.2l2.4,5.7l-2,0.8L479.1,87.9z"/>
	</g>
	<g>
		<path d="M479.6,282.7l1.9-0.8l3.8,9.1l3.7-12.3l2.2-0.9l-3,9.7c0.4,0.3,1.1,0.7,2,1.4c2.1,1.4,3.6,2.4,4.5,3
			c0.9,0.6,1.8,1.2,2.6,1.9l1.3,0.9l-2.2,0.9c-0.1,0-0.1-0.1-0.2-0.2c-0.1-0.1-0.2-0.1-0.2-0.2c-0.1-0.1-0.2-0.2-0.3-0.3
			c-0.1-0.1-0.3-0.3-0.7-0.5c-0.3-0.3-0.8-0.6-1.5-1.1c-0.6-0.5-1.3-0.9-2-1.4c-0.7-0.5-1.4-0.9-2-1.4c-0.7-0.4-1.3-0.8-1.8-1.2
			l-1.3,4l2.3,5.4l-1.9,0.8L479.6,282.7z"/>
		<path d="M497.1,275.5l1.9-0.8l6.4,15.5l7-2.9l0.6,1.5l-8.9,3.7L497.1,275.5z"/>
		<path d="M515.9,267.7l1.8-0.8l13.4,14.3l-2,0.8l-3.6-4l-7.4,3.1l0.2,5.4l-2,0.8L515.9,267.7z M524.4,276.9l-5.8-6.4l-1-1.1
			l0.1,1.5l0.3,8.7L524.4,276.9z"/>
		<path d="M538.3,269.6c-0.6,0.2-1.2,0.5-1.7,0.7c-0.6,0.2-1.1,0.5-1.7,0.7l3.1,7.4l-1.9,0.8l-7-17l0.5-0.2l0.6-0.2
			c0.5-0.2,1.2-0.5,1.9-0.8c0.7-0.3,1.4-0.6,2.2-0.9c3.9-1.6,6.5-0.9,7.7,2.2c0.8,1.8,0.6,3.5-0.4,4.9c-0.3,0.4-0.7,0.8-1.2,1.2
			c0.9,0.1,2,0.8,3.4,2c0.5,0.5,1.1,1,1.8,1.6c0.7,0.6,1.1,1,1.4,1.2s0.5,0.4,0.7,0.5c0.2,0.1,0.4,0.3,0.5,0.4l-2.1,0.9
			c-0.4-0.2-0.9-0.7-1.6-1.3c-0.7-0.7-1.2-1.2-1.6-1.5c-1-0.9-1.8-1.6-2.3-1.9C539.7,269.8,539,269.5,538.3,269.6z M537.9,261
			c-0.5-0.1-1-0.1-1.6,0c-0.6,0.1-1.4,0.3-2.4,0.8c-1,0.4-1.8,0.8-2.4,1.2l2.8,6.7c0.4-0.1,1-0.4,1.8-0.7l1.4-0.6
			c1.9-0.8,2.8-2,2.8-3.5c0-0.5-0.1-1.1-0.4-1.7c-0.3-0.6-0.5-1.1-0.9-1.4C538.8,261.4,538.4,261.2,537.9,261z"/>
		<path d="M546.6,255l1.9-0.8l7,17l-1.9,0.8L546.6,255z"/>
		<path d="M559.2,258.7l9.5-4l0.6,1.5l-9.5,4L559.2,258.7z"/>
		<path d="M491,310.1l1.7-0.7l12.7,8.6l2.7,2.1l-1.6-3.4l-4.6-11.1l1.7-0.7l7,17l-1.7,0.7l-12.4-8.4l-3-2.2l1.6,3.6l4.5,10.8
			l-1.7,0.7L491,310.1z"/>
		<path d="M510.6,302l9.6-4l0.6,1.5l-7.7,3.2l2.5,6l5.6-2.3l0.6,1.5l-5.6,2.3l2.7,6.6l8.5-3.5l0.6,1.5l-10.4,4.3L510.6,302z"/>
		<path d="M530.8,295.3l-5.5,2.3l-0.6-1.5l12.9-5.4l0.6,1.5l-5.6,2.3l6.4,15.5l-1.9,0.8L530.8,295.3z"/>
		<path d="M547.3,288.5l-5.5,2.3l-0.6-1.5l12.9-5.4l0.6,1.5l-5.5,2.3l6.4,15.5l-1.9,0.8L547.3,288.5z"/>
		<path d="M559.4,281.8l9.6-4l0.6,1.5l-7.7,3.2l2.5,6l5.6-2.3l0.6,1.5l-5.6,2.3l2.7,6.6l8.5-3.5l0.6,1.5l-10.4,4.3L559.4,281.8z"/>
		<path d="M575,275.3l1.7-0.7l12.7,8.6l2.7,2.1l-1.6-3.4l-4.6-11.1l1.7-0.7l7,17l-1.7,0.7l-12.4-8.4l-3-2.2l1.6,3.6l4.5,10.8
			l-1.7,0.7L575,275.3z"/>
	</g>
	<g>
		<path d="M372.4,509.7c0,1.4-0.1,2.5-0.2,3.3l-1.2-0.2c0.1-1.2,0-2.6-0.3-4.2c-0.1-0.4-0.1-0.7-0.2-0.9l0.6-0.8l14,5.8l-0.8,1.9
			L372.4,509.7z"/>
		<path d="M385.1,508.6c-0.4-0.2-0.7-0.5-0.9-0.9c-0.2-0.4-0.2-0.8-0.1-1.2c0.2-0.4,0.4-0.6,0.8-0.7c0.4-0.1,0.7-0.1,1,0
			c0.5,0.2,0.9,0.5,1.1,0.9c0.2,0.4,0.2,0.7,0.1,1c-0.1,0.3-0.2,0.5-0.4,0.6c-0.1,0.1-0.3,0.2-0.4,0.3
			C385.9,508.8,385.5,508.8,385.1,508.6z"/>
		<path d="M370.7,576.8l0.8-2l13.8,0.6l3,0.3l-2.3-2l-10.3-9.1l0.8-2l14.4,13.2l-0.7,1.6L370.7,576.8z"/>
		<path d="M378.7,557.5l0.8-1.9l17,7l-0.8,1.9L378.7,557.5z"/>
		<path d="M400.1,552.1c-1.6,1.5-3.6,2.2-6,2c-1.2-0.1-2.4-0.4-3.7-1c-1.3-0.5-2.4-1.3-3.3-2.1c-0.9-0.9-1.6-1.8-2-2.8
			c-0.8-2-0.8-4.1,0.1-6.4c0.9-2.2,2.4-3.7,4.5-4.4c2.1-0.7,4.3-0.5,6.7,0.5c2.8,1.2,4.6,2.8,5.6,4.8c0.9,2.1,0.9,4.3,0,6.6
			C401.5,550.5,400.9,551.4,400.1,552.1z M394.1,552.1c2,0.2,3.6-0.2,4.9-1.3c0.7-0.5,1.2-1.2,1.5-2.1c0.7-1.8,0.7-3.4-0.1-4.9
			c-0.8-1.5-2.3-2.8-4.5-3.6c-2.1-0.9-4.1-1.1-5.8-0.7c-1.7,0.4-2.9,1.5-3.6,3.2c-0.7,1.7-0.7,3.4,0.1,5c0.8,1.6,2.3,2.9,4.6,3.8
			C392.2,551.7,393.2,551.9,394.1,552.1z"/>
		<path d="M390.6,528.8l0.8-1.9l15.5,6.4l2.9-7l1.5,0.6l-3.7,8.9L390.6,528.8z"/>
		<path d="M396.5,514.5l0.8-1.9l17,7l-0.8,1.9L396.5,514.5z"/>
		<path d="M400.2,505.5l0.7-1.7l15-2.9l3.4-0.4l-3.5-1.3l-11.1-4.6l0.7-1.7l17,7l-0.7,1.7l-14.7,2.9l-3.7,0.5l3.7,1.4l10.8,4.5
			l-0.7,1.7L400.2,505.5z"/>
		<path d="M408.3,485.9l4-9.6l1.5,0.6l-3.2,7.7l6,2.5l2.3-5.6l1.5,0.6l-2.3,5.6l6.6,2.7l3.5-8.5l1.5,0.6l-4.3,10.4L408.3,485.9z"/>
		<path d="M414.8,470.3l0.7-1.7l15-2.9l3.4-0.4l-3.5-1.3l-11.1-4.6l0.7-1.7l17,7l-0.7,1.7l-14.7,2.9l-3.7,0.5l3.7,1.4l10.8,4.5
			l-0.7,1.7L414.8,470.3z"/>
	</g>
	<g>
		<path d="M274.4,521.5l4.5-11l1.7,0.7L277,520l7.2,3l2.7-6.6l1.7,0.7l-2.7,6.6l9,3.7l-0.9,2.2L274.4,521.5z"/>
		<path d="M280.2,507.5l0.9-2.2l17.9,7.4l3.4-8.1l1.7,0.7l-4.3,10.3L280.2,507.5z"/>
		<path d="M282.7,486.8c0.4-0.9,1-1.1,2-0.8c0.7,0.3,1.1,0.8,1.1,1.6c0,0.2-0.1,0.5-0.2,0.8c-0.1,0.3-0.4,0.5-0.7,0.7
			c-0.3,0.2-0.7,0.2-1,0c-0.6-0.2-0.9-0.6-1.1-1C282.6,487.7,282.6,487.2,282.7,486.8z M285.3,480.6c0.4-0.9,1-1.2,2-0.8
			c0.7,0.3,1.1,0.8,1.1,1.6c0,0.2-0.1,0.5-0.2,0.8c-0.1,0.3-0.4,0.5-0.7,0.7c-0.3,0.2-0.7,0.2-1,0c-0.6-0.2-0.9-0.6-1.1-1
			S285.1,481,285.3,480.6z M306.4,497.9c-1.9,1.8-4.2,2.5-7,2.3c-1.3-0.1-2.8-0.5-4.3-1.1c-1.5-0.6-2.8-1.5-3.9-2.5
			c-1.1-1-1.8-2.1-2.3-3.2c-1-2.3-0.9-4.8,0.1-7.4c1.1-2.6,2.8-4.3,5.2-5c2.4-0.8,5-0.6,7.8,0.6c3.2,1.3,5.4,3.2,6.5,5.6
			c1.1,2.4,1.1,4.9,0,7.6C308,496,307.3,497,306.4,497.9z M299.5,497.8c2.3,0.3,4.2-0.2,5.7-1.4c0.8-0.6,1.4-1.4,1.8-2.5
			c0.8-2,0.8-3.9-0.2-5.7c-1-1.8-2.7-3.2-5.2-4.2c-2.5-1-4.7-1.3-6.7-0.8c-2,0.5-3.4,1.7-4.2,3.7c-0.8,2-0.8,3.9,0.1,5.7
			c0.9,1.9,2.7,3.3,5.4,4.5C297.3,497.3,298.4,497.6,299.5,497.8z"/>
		<path d="M297.9,469.7l-2.6,6.3l-1.7-0.7l6.2-15l1.7,0.7l-2.7,6.4l17.9,7.4l-0.9,2.2L297.9,469.7z"/>
		<path d="M301.2,457l4.6-11.1l1.7,0.7l-3.7,8.9l7,2.9l2.7-6.5l1.7,0.7l-2.7,6.5l7.6,3.1l4.1-9.8l1.7,0.7l-5,12L301.2,457z"/>
		<path d="M307.6,441.5l0.8-2l17.4-3.4l3.9-0.5l-4.1-1.5l-12.9-5.3l0.8-2l19.6,8.1l-0.8,2l-17,3.3l-4.3,0.6l4.3,1.6l12.5,5.2l-0.8,2
			L307.6,441.5z"/>
	</g>
	<g>
		<path d="M197,466.3l-2.3,5.5l-1.5-0.6l5.4-12.9l1.5,0.6l-2.3,5.5l15.5,6.4l-0.8,1.9L197,466.3z"/>
		<path d="M200.6,453.4l0.8-1.9l9.2,3.8c3.4,1.4,5.7,1.3,7-0.2c0.4-0.5,0.8-1.1,1.1-1.8c0.6-1.4,0.6-2.7-0.1-3.8
			c-0.6-1.1-2.1-2.1-4.4-3.1l-9.2-3.8l0.8-1.9l9.7,4c4.9,2,6.4,5.1,4.7,9.3c-1.4,3.3-3.6,4.7-6.6,4.3c-1-0.1-2.1-0.4-3.3-0.9
			L200.6,453.4z"/>
		<path d="M228.4,433.2c-0.1,1-0.4,1.9-0.8,2.8c-0.4,0.9-1,2.4-1.8,4.3l-0.4,1l-17-7l0.4-1l1.6-3.8c0.8-1.9,1.7-3.1,2.7-3.7
			c1.1-0.6,2.3-0.7,3.6-0.1c1.3,0.6,2.2,1.5,2.6,2.8c0.1,0.5,0.2,1,0.1,1.5c0.4-1,1.2-1.8,2.3-2.3c1.1-0.5,2.2-0.5,3.3,0
			c1.7,0.7,2.7,1.7,3.2,3C228.5,431.5,228.5,432.3,228.4,433.2z M211.6,430.4c-0.5,1.1-0.8,2-0.9,2.7l6,2.5c0.1-0.3,0.4-0.9,0.8-1.9
			l0.8-2c0.4-0.9,0.3-1.7-0.1-2.4c-0.4-0.7-1.1-1.3-2.1-1.7C214.3,426.7,212.7,427.7,211.6,430.4z M219.7,432.5l-0.9,2.2
			c-0.3,0.7-0.5,1.2-0.6,1.5l6.6,2.7c0.5-0.7,0.9-1.6,1.3-2.6c0.4-1,0.7-1.9,0.8-2.5c0.3-1.9-0.5-3.3-2.4-4
			C222.4,428.8,220.8,429.8,219.7,432.5z"/>
		<path d="M217.6,412.4l0.8-1.8l19.6,0.6l-0.8,2l-5.3-0.3l-3.1,7.4l4,3.6l-0.8,2L217.6,412.4z M230.2,412.8l-8.6-0.4l-1.5-0.1l1.1,1
			l6.3,5.9L230.2,412.8z"/>
	</g>
	<g>
		<path d="M64.8,536.5l0.8-1.9l7.6,3.1l3.7-8.8l-7.6-3.1l0.8-1.9l17,7l-0.8,1.9l-7.9-3.3l-3.7,8.8l7.9,3.3l-0.8,1.9L64.8,536.5z"/>
		<path d="M74.8,512.4l0.8-1.8l19.6,0.6l-0.8,2L89,513l-3.1,7.4l4,3.6l-0.8,2L74.8,512.4z M87.4,512.9l-8.6-0.4l-1.5-0.1l1.1,1
			l6.3,5.9L87.4,512.9z"/>
		<path d="M92,497.9c-0.2,0.6-0.5,1.1-0.7,1.7c-0.2,0.6-0.5,1.1-0.7,1.7l7.4,3.1l-0.8,1.9l-17-7l0.2-0.5l0.2-0.6
			c0.2-0.5,0.5-1.2,0.8-1.9c0.3-0.7,0.6-1.4,0.9-2.2c1.6-3.9,3.9-5.2,7-3.9c1.8,0.8,2.9,2,3.2,3.7c0.1,0.5,0.1,1.1,0,1.7
			c0.7-0.5,2-0.9,3.8-1c0.7-0.1,1.5-0.1,2.4-0.1s1.5-0.1,1.9-0.1s0.6-0.1,0.9-0.1c0.2,0,0.5-0.1,0.7-0.1l-0.9,2.1
			c-0.4,0.1-1.1,0.2-2.1,0.2c-0.9,0-1.7,0-2.2,0c-1.3,0-2.3,0.1-3,0.3C93.1,497,92.4,497.4,92,497.9z M85.7,492.1
			c-0.4,0.2-0.8,0.6-1.1,1.1c-0.3,0.5-0.7,1.2-1.1,2.2c-0.4,1-0.7,1.9-0.8,2.6l6.7,2.8c0.2-0.4,0.5-1,0.8-1.7l0.6-1.4
			c0.8-1.9,0.6-3.4-0.5-4.5c-0.4-0.4-0.9-0.7-1.5-0.9c-0.6-0.3-1.2-0.4-1.6-0.4C86.5,491.8,86.1,491.9,85.7,492.1z"/>
		<path d="M87.5,481.8l3.9-9.5l1.5,0.6l-3.1,7.6l6.3,2.6l2.3-5.7l1.5,0.6l-2.3,5.7l7.8,3.2l-0.8,1.9L87.5,481.8z"/>
		<path d="M93.4,467.5l4-9.6l1.5,0.6l-3.2,7.7l6,2.5l2.3-5.6l1.5,0.6l-2.3,5.6l6.6,2.7l3.5-8.5l1.5,0.6l-4.3,10.4L93.4,467.5z"/>
		<path d="M115.1,458.1l-0.6-1.6c0.5-0.5,1.2-0.7,1.9-0.8c0.8,0,1.5,0.1,2.1,0.4c1.2,0.5,2.2,1.2,2.9,2.1c0.7,0.9,1.1,1.8,1.1,2.7
			l-1,0.3l-0.2-0.1c-0.1-0.9-0.7-1.7-1.7-2.4c-0.3-0.3-0.7-0.4-1-0.6c-0.6-0.2-1.1-0.3-1.7-0.3s-1,0.2-1.2,0.5L115.1,458.1z"/>
		<path d="M107.6,433.2l0.8-1.9l9.1,3.8l-6-11.3l0.9-2.2l4.7,9c0.5-0.1,1.3-0.2,2.4-0.5c2.5-0.5,4.2-0.9,5.3-1.1
			c1.1-0.2,2.1-0.4,3.2-0.5l1.5-0.2l-0.9,2.2c-0.1,0-0.2,0-0.3,0c-0.1,0-0.2,0-0.3,0c-0.1,0-0.3,0-0.4,0c-0.2,0-0.4,0-0.9,0.1
			c-0.4,0.1-1,0.1-1.8,0.3c-0.8,0.1-1.6,0.3-2.4,0.4c-0.8,0.2-1.6,0.3-2.4,0.5c-0.8,0.2-1.5,0.3-2.1,0.4l1.9,3.8l5.4,2.3l-0.8,1.9
			L107.6,433.2z"/>
		<path d="M114.9,415.7l0.8-1.9l15.5,6.4l2.9-7l1.5,0.6l-3.7,8.9L114.9,415.7z"/>
		<path d="M122.6,397l0.8-1.8l19.6,0.6l-0.8,2l-5.3-0.3l-3.1,7.4l4,3.6l-0.8,2L122.6,397z M135.2,397.4l-8.6-0.4l-1.5-0.1l1.1,1
			l6.3,5.9L135.2,397.4z"/>
		<path d="M127.3,385.7l0.8-2l13.8,0.6l3,0.3l-2.3-2l-10.3-9.1l0.8-2l14.4,13.2l-0.7,1.6L127.3,385.7z"/>
		<path d="M135.3,366.5l0.8-1.9l17,7l-0.8,1.9L135.3,366.5z"/>
		<path d="M139,357.5l4-9.6l1.5,0.6l-3.2,7.7l6,2.5l2.3-5.6l1.5,0.6l-2.3,5.6l6.6,2.7l3.5-8.5l1.5,0.6l-4.3,10.4L139,357.5z"/>
		<path d="M157.2,340.5c-0.2,0.6-0.5,1.1-0.7,1.7s-0.5,1.1-0.7,1.7l7.4,3.1l-0.8,1.9l-17-7l0.2-0.5l0.2-0.6c0.2-0.5,0.5-1.2,0.8-1.9
			c0.3-0.7,0.6-1.4,0.9-2.2c1.6-3.9,3.9-5.2,7-3.9c1.8,0.8,2.9,2,3.2,3.7c0.1,0.5,0.1,1.1,0,1.7c0.7-0.5,2-0.9,3.8-1
			c0.7,0,1.5-0.1,2.4-0.1c0.9,0,1.5-0.1,1.9-0.1c0.3,0,0.6-0.1,0.9-0.1s0.5-0.1,0.7-0.1l-0.9,2.1c-0.4,0.1-1.1,0.2-2.1,0.2
			c-0.9,0-1.7,0-2.2,0c-1.3,0-2.3,0.1-3,0.3C158.3,339.6,157.6,340,157.2,340.5z M150.9,334.7c-0.4,0.2-0.8,0.6-1.1,1.1
			c-0.3,0.5-0.7,1.2-1.1,2.2c-0.4,1-0.7,1.9-0.8,2.6l6.7,2.8c0.2-0.4,0.5-1,0.8-1.7l0.6-1.4c0.8-1.9,0.6-3.4-0.5-4.5
			c-0.4-0.4-0.9-0.7-1.5-0.9c-0.6-0.3-1.2-0.4-1.6-0.4C151.7,334.4,151.3,334.5,150.9,334.7z"/>
		<g>
			<path d="M157.7,315l4-9.6l1.5,0.6l-3.2,7.7l6,2.5l2.3-5.6l1.5,0.6l-2.3,5.6l6.6,2.7l3.5-8.5l1.5,0.6l-4.3,10.4L157.7,315z"/>
			<path d="M167.3,296l-2.3,5.5l-1.5-0.6l5.4-12.9l1.5,0.6l-2.3,5.5l15.5,6.4l-0.8,1.9L167.3,296z"/>
			<path d="M186.2,287.8c-1,0.4-2.1,0.5-3.3,0.4c-1.2-0.1-2.4-0.4-3.8-0.9c-1.3-0.5-2.4-1.2-3.3-2.1c-0.9-0.9-1.6-1.8-2-2.8
				c-0.9-2-0.9-4.2,0-6.4c0.6-1.5,1.3-2.7,2.1-3.6c0.2-0.2,0.3-0.4,0.4-0.6l1.6,1c-0.1,0.1-0.2,0.2-0.4,0.4c-0.2,0.2-0.5,0.5-0.9,1
				c-0.4,0.5-0.8,1.2-1.2,2.2c-0.8,1.9-0.8,3.6,0,5.2c0.8,1.6,2.2,2.8,4.3,3.7c2.1,0.9,4,1.1,5.8,0.6c1.8-0.5,3-1.7,3.8-3.5
				c0.6-1.4,0.9-2.8,0.9-4c0-0.3,0-0.6-0.1-0.8l1.6,0.6c0,0.3,0,0.6-0.1,0.9c0,0.3-0.1,0.8-0.2,1.5c-0.1,0.7-0.4,1.5-0.8,2.6
				c-0.5,1.1-1.1,2-1.9,2.8C188.1,286.9,187.2,287.5,186.2,287.8z"/>
			<path d="M193.6,272.4c-0.4-0.2-0.7-0.5-0.9-0.9c-0.2-0.4-0.2-0.8-0.1-1.2c0.2-0.4,0.4-0.6,0.8-0.7c0.4-0.1,0.7-0.1,1,0
				c0.5,0.2,0.9,0.5,1.1,0.9c0.2,0.4,0.2,0.7,0.1,1c-0.1,0.3-0.2,0.5-0.4,0.6c-0.1,0.1-0.3,0.2-0.4,0.3
				C194.4,272.6,194,272.5,193.6,272.4z"/>
		</g>
	</g>
</g>
</svg>
