<?xml version="1.0" encoding="utf-8"?>
<!-- Generator: Adobe Illustrator 18.1.1, SVG Export Plug-In . SVG Version: 6.00 Build 0)  -->
<!DOCTYPE svg PUBLIC "-//W3C//DTD SVG 1.1//EN" "http://www.w3.org/Graphics/SVG/1.1/DTD/svg11.dtd">
<svg version="1.1" xmlns="http://www.w3.org/2000/svg" xmlns:xlink="http://www.w3.org/1999/xlink" x="0px" y="0px"
	 viewBox="0 0 384.6 220.2" enable-background="new 0 0 384.6 220.2" xml:space="preserve">
<g id="Klaviatur" display="none">
</g>
<g id="Notenschlüssel" display="none">
</g>
<g id="reine_Anschauung" display="none">
</g>
<g id="Erkenntnis" display="none">
</g>
<g id="Dur_x2F_Moll">
</g>
<g id="Obertöne">
	<g>
		<g>
			<path fill="none" stroke="#E6E6E6" stroke-width="2" stroke-miterlimit="10" d="M5.6,110.2c0,0,23-56,38.2-56
				c11.8,0,2.7,36.2,16.5,36.2c12,0,11.1-9.7,18.4-9.7c7.3,0,14.9,29.5,14.9,29.5"/>
			<path fill="none" stroke="#E6E6E6" stroke-width="2" stroke-miterlimit="10" d="M181.6,110.2c0,0,23-56,38.2-56
				c11.8,0,2.7,36.2,16.5,36.2c12,0,11.1-9.7,18.4-9.7c7.3,0,14.9,29.5,14.9,29.5"/>
			<path fill="none" stroke="#E6E6E6" stroke-width="2" stroke-miterlimit="10" d="M181.6,110.2c0,0-23,56-38.2,56
				c-11.8,0-2.7-36.2-16.5-36.2c-12,0-11.1,9.7-18.4,9.7s-14.9-29.5-14.9-29.5"/>
			<path fill="none" stroke="#E6E6E6" stroke-width="2" stroke-miterlimit="10" d="M357.6,110.2c0,0-23,56-38.2,56
				c-11.8,0-2.7-36.2-16.5-36.2c-12,0-11.1,9.7-18.4,9.7c-7.3,0-14.9-29.5-14.9-29.5"/>
		</g>
		<g>
			<path fill="none" stroke="#F8A478" stroke-width="2" stroke-miterlimit="10" d="M5.6,110.2c0,0,22.7-68.7,45.3-68.7
				s42.7,68.7,42.7,68.7"/>
			<path fill="none" stroke="#F8A478" stroke-width="2" stroke-miterlimit="10" d="M181.6,110.2c0,0-22.7,68.7-45.3,68.7
				s-42.7-68.7-42.7-68.7"/>
			<path fill="none" stroke="#F8A478" stroke-width="2" stroke-miterlimit="10" d="M181.6,110.2c0,0,22.7-68.7,45.3-68.7
				s42.7,68.7,42.7,68.7"/>
			<path fill="none" stroke="#F8A478" stroke-width="2" stroke-miterlimit="10" d="M357.6,110.2c0,0-22.7,68.7-45.3,68.7
				s-42.7-68.7-42.7-68.7"/>
		</g>
		<line stroke="#808080" stroke-width="2" stroke-linecap="square" stroke-miterlimit="10" x1="372" y1="110.6" x2="6" y2="110.6"/>
		<line fill="none" stroke="#808080" stroke-width="2" stroke-miterlimit="10" x1="6" y1="12.6" x2="6" y2="207.6"/>
		
			<line fill="none" stroke="#808080" stroke-width="2" stroke-miterlimit="10" stroke-dasharray="3,6" x1="182" y1="12.6" x2="182" y2="110.6"/>
		
			<line fill="none" stroke="#808080" stroke-width="2" stroke-miterlimit="10" stroke-dasharray="3,6" x1="182" y1="110.6" x2="182" y2="207.6"/>
		
			<line fill="none" stroke="#808080" stroke-width="2" stroke-miterlimit="10" stroke-dasharray="3,6" x1="358" y1="12.6" x2="358" y2="110.6"/>
		
			<line fill="none" stroke="#808080" stroke-width="2" stroke-miterlimit="10" stroke-dasharray="3,6" x1="358" y1="110.6" x2="358" y2="207.6"/>
		<polygon fill="#808080" stroke="#808080" stroke-width="2" stroke-miterlimit="10" points="382,110.2 372,114.3 372,106 		"/>
		<polygon fill="#808080" stroke="#808080" stroke-width="2" stroke-miterlimit="10" points="5.6,217.6 1.5,207.6 9.8,207.6 		"/>
		<polygon fill="#808080" stroke="#808080" stroke-width="2" stroke-miterlimit="10" points="5.6,2.6 9.8,12.6 1.5,12.6 		"/>
	</g>
</g>
<g id="Stimmlagen">
</g>
<g id="Orchester">
</g>
</svg>
